<?xml version="1.0" standalone="no"?>
<!DOCTYPE svg PUBLIC "-//W3C//DTD SVG 20010904//EN"
 "http://www.w3.org/TR/2001/REC-SVG-20010904/DTD/svg10.dtd">
<svg version="1.0" xmlns="http://www.w3.org/2000/svg"
 width="1275.000000pt" height="869.000000pt" viewBox="0 0 1275.000000 869.000000"
 preserveAspectRatio="xMidYMid meet">
<metadata>
Created by potrace 1.16, written by Peter Selinger 2001-2019
</metadata>
<g transform="translate(0.000000,869.000000) scale(0.100000,-0.100000)"
fill="#000000" stroke="none">
<path d="M0 4345 l0 -4345 6375 0 6375 0 0 4345 0 4345 -6375 0 -6375 0 0
-4345z m4760 3281 c81 -20 180 -59 294 -118 341 -172 621 -414 713 -613 24
-53 27 -71 27 -163 0 -65 -5 -107 -12 -114 -7 -7 -12 -19 -12 -28 0 -17 -70
-124 -99 -150 -102 -95 -231 -149 -357 -150 -46 0 -62 7 -185 84 -221 136
-459 261 -575 302 -135 46 -288 24 -479 -70 -246 -122 -446 -347 -542 -611
-26 -72 -26 -296 1 -380 25 -79 66 -160 111 -221 98 -130 321 -314 415 -342
41 -13 218 -74 380 -132 63 -23 129 -45 145 -50 30 -8 135 -47 190 -70 17 -7
46 -19 65 -27 124 -52 430 -221 515 -285 6 -4 51 -37 100 -74 140 -104 300
-252 399 -368 22 -27 46 -54 51 -60 66 -71 200 -276 247 -376 94 -202 92 -193
85 -439 -11 -344 -40 -672 -66 -751 -4 -14 -14 -43 -21 -65 -12 -38 -26 -76
-55 -140 -7 -16 -21 -48 -30 -70 -243 -559 -622 -893 -1195 -1052 -102 -28
-274 -59 -410 -74 -158 -17 -751 -23 -860 -9 -119 15 -281 59 -385 104 -16 7
-55 24 -85 37 -80 34 -692 344 -964 488 -231 123 -357 268 -388 449 -43 251
122 512 372 588 72 22 78 21 230 -32 152 -52 246 -88 254 -96 6 -4 16 -8 23
-8 7 0 38 -12 70 -26 263 -120 379 -184 513 -285 83 -63 147 -93 280 -132 77
-23 128 -35 286 -66 28 -5 137 -16 243 -22 373 -25 590 17 821 159 14 9 48 35
77 59 53 45 55 49 103 218 53 183 79 361 87 581 5 134 3 174 -12 235 -32 135
-79 216 -185 317 -167 162 -328 251 -795 441 -19 8 -88 35 -130 51 -106 40
-133 51 -210 86 -33 14 -82 35 -109 46 -58 23 -104 44 -289 132 -241 116 -462
268 -516 356 -17 28 -31 52 -31 55 0 3 -17 33 -39 68 -53 88 -209 402 -258
522 -95 231 -122 369 -104 542 49 475 306 886 824 1322 120 101 136 111 228
141 35 12 73 25 84 29 11 5 32 14 48 20 41 16 343 116 412 136 33 9 71 21 85
25 36 13 266 66 330 78 82 14 228 13 290 -2z m5547 3 c27 -7 62 -18 80 -25 17
-8 36 -14 43 -14 21 0 278 -128 363 -182 161 -100 263 -183 384 -309 145 -152
196 -275 173 -421 -14 -94 -49 -159 -129 -238 -97 -96 -219 -149 -346 -150
-47 0 -63 8 -200 91 -194 119 -358 207 -494 268 -143 63 -252 66 -426 9 -238
-78 -490 -297 -603 -523 -79 -160 -101 -265 -83 -400 25 -189 96 -321 258
-480 76 -74 239 -187 293 -203 19 -5 87 -29 150 -52 63 -23 147 -52 185 -65
39 -13 122 -42 185 -65 63 -23 126 -46 140 -50 37 -12 138 -55 197 -84 29 -14
55 -26 57 -26 11 0 251 -138 326 -188 224 -149 458 -357 595 -527 80 -100 175
-230 175 -239 0 -3 17 -34 39 -69 21 -34 58 -110 82 -167 l44 -105 -4 -235
c-3 -223 -29 -594 -50 -708 -15 -79 -29 -120 -80 -235 -17 -38 -31 -71 -31
-73 0 -3 -18 -43 -40 -90 -22 -47 -40 -87 -40 -89 0 -6 -51 -90 -98 -165 -247
-387 -650 -651 -1157 -759 -85 -18 -244 -40 -375 -51 -160 -13 -698 -13 -776
0 -103 19 -209 43 -219 52 -5 4 -17 8 -27 8 -9 0 -34 7 -55 16 -21 9 -47 20
-58 25 -130 51 -236 102 -529 253 -89 46 -251 130 -361 186 -356 183 -472 280
-540 455 -28 71 -28 258 0 330 67 176 198 300 361 344 63 17 96 13 179 -20 11
-4 47 -17 80 -28 34 -11 72 -24 85 -29 14 -6 57 -22 95 -37 279 -109 512 -231
650 -342 132 -107 421 -187 764 -213 348 -26 559 3 765 106 75 37 202 127 215
153 13 23 51 140 61 186 5 22 16 67 24 100 54 201 76 618 40 743 -75 258 -362
483 -874 682 -74 29 -144 56 -155 61 -120 49 -171 69 -177 69 -3 0 -39 15 -80
34 -40 18 -111 49 -158 69 -219 90 -427 196 -555 280 -101 67 -201 150 -220
182 -9 17 -31 55 -48 85 -16 30 -39 71 -50 90 -66 117 -182 354 -229 470 -101
246 -111 290 -111 475 -1 145 4 182 40 315 31 113 43 145 104 275 119 256 351
539 639 781 143 120 171 140 220 157 25 9 63 23 85 31 179 66 274 99 300 105
17 5 57 17 90 28 33 12 87 29 120 38 33 9 71 21 85 25 36 13 266 66 330 78 79
14 222 14 277 1z"/>
</g>
</svg>
