<svg width="1920" height="1080" viewBox="0 0 1920 1080" fill="none" xmlns="http://www.w3.org/2000/svg">
<rect width="1920" height="1080" fill="#FFC700"/>
<rect x="234.462" y="109.381" width="401" height="275" rx="43" stroke="#746BEB" stroke-width="4"/>
<path d="M297.31 193.834H304.439V218.248C304.439 220.982 303.934 223.212 302.925 224.937C301.932 226.646 300.557 227.9 298.799 228.697C297.042 229.478 295.031 229.869 292.769 229.869C290.49 229.869 288.464 229.478 286.69 228.697C284.916 227.9 283.532 226.646 282.54 224.937C281.563 223.212 281.075 220.982 281.075 218.248V193.834H288.204V218.248C288.204 219.794 288.375 220.982 288.716 221.812C289.074 222.642 289.587 223.212 290.254 223.521C290.938 223.814 291.776 223.961 292.769 223.961C293.778 223.961 294.608 223.814 295.259 223.521C295.927 223.212 296.431 222.642 296.773 221.812C297.131 220.982 297.31 219.794 297.31 218.248V193.834ZM316.207 193.834L321.285 205.699L326.119 193.834H334.004L325.435 211.436L334.175 229.381H325.972L320.918 217.247L315.865 229.381H307.833L316.719 211.29L308.028 193.834H316.207ZM358.687 229.381H352.413L352.461 223.473H358.687C360.412 223.473 361.755 223.163 362.715 222.545C363.676 221.926 364.351 220.95 364.742 219.615C365.149 218.28 365.352 216.531 365.352 214.366V208.824C365.352 207.18 365.246 205.789 365.035 204.649C364.823 203.494 364.465 202.566 363.96 201.866C363.456 201.15 362.78 200.621 361.934 200.279C361.088 199.937 360.038 199.766 358.785 199.766H352.291V193.834H358.785C360.835 193.834 362.699 194.168 364.375 194.835C366.052 195.502 367.492 196.479 368.697 197.765C369.901 199.034 370.829 200.605 371.48 202.476C372.131 204.348 372.457 206.48 372.457 208.873V214.366C372.457 216.775 372.131 218.907 371.48 220.763C370.829 222.618 369.901 224.189 368.697 225.474C367.509 226.744 366.068 227.712 364.375 228.38C362.683 229.047 360.787 229.381 358.687 229.381ZM356.563 193.834V229.381H349.41V193.834H356.563ZM398.067 223.473V229.381H382.613V223.473H398.067ZM384.834 193.834V229.381H377.681V193.834H384.834ZM395.992 208.238V213.975H382.613V208.238H395.992ZM398.018 193.834V199.766H382.613V193.834H398.018ZM417.281 220.03C417.281 219.395 417.224 218.818 417.11 218.297C416.996 217.776 416.752 217.296 416.377 216.856C416.019 216.417 415.49 215.977 414.791 215.538C414.107 215.099 413.212 214.643 412.105 214.171C410.787 213.617 409.509 213.031 408.272 212.413C407.035 211.778 405.92 211.046 404.927 210.216C403.934 209.386 403.145 208.409 402.559 207.286C401.989 206.147 401.705 204.812 401.705 203.282C401.705 201.785 401.973 200.426 402.51 199.205C403.064 197.984 403.845 196.943 404.854 196.08C405.863 195.201 407.043 194.526 408.394 194.054C409.761 193.582 411.283 193.346 412.959 193.346C415.238 193.346 417.208 193.818 418.868 194.762C420.544 195.706 421.838 197 422.75 198.643C423.677 200.287 424.141 202.175 424.141 204.307H417.012C417.012 203.298 416.866 202.411 416.573 201.646C416.296 200.865 415.848 200.255 415.23 199.815C414.611 199.376 413.814 199.156 412.837 199.156C411.926 199.156 411.169 199.343 410.567 199.718C409.981 200.076 409.541 200.572 409.249 201.207C408.972 201.825 408.833 202.525 408.833 203.307C408.833 203.892 408.972 204.421 409.249 204.893C409.541 205.349 409.94 205.764 410.445 206.139C410.949 206.497 411.543 206.847 412.227 207.188C412.927 207.53 413.692 207.864 414.522 208.189C416.133 208.824 417.557 209.524 418.794 210.289C420.031 211.038 421.065 211.884 421.895 212.828C422.725 213.756 423.352 214.806 423.775 215.977C424.198 217.149 424.41 218.484 424.41 219.981C424.41 221.462 424.149 222.813 423.628 224.034C423.124 225.238 422.383 226.28 421.407 227.159C420.43 228.022 419.25 228.689 417.867 229.161C416.5 229.633 414.97 229.869 413.277 229.869C411.633 229.869 410.079 229.641 408.614 229.185C407.149 228.713 405.855 228.005 404.732 227.061C403.625 226.101 402.754 224.889 402.12 223.424C401.485 221.943 401.167 220.193 401.167 218.175H408.321C408.321 219.249 408.427 220.168 408.638 220.933C408.85 221.682 409.175 222.284 409.615 222.74C410.054 223.18 410.591 223.513 411.226 223.741C411.877 223.953 412.618 224.058 413.448 224.058C414.392 224.058 415.14 223.879 415.694 223.521C416.264 223.163 416.67 222.683 416.915 222.081C417.159 221.479 417.281 220.795 417.281 220.03ZM436.666 193.834V229.381H429.561V193.834H436.666ZM466.915 210.704V225.352C466.41 225.89 465.669 226.516 464.693 227.232C463.733 227.932 462.471 228.551 460.909 229.088C459.362 229.609 457.474 229.869 455.245 229.869C453.275 229.869 451.485 229.56 449.874 228.941C448.278 228.323 446.903 227.387 445.748 226.134C444.608 224.864 443.737 223.285 443.135 221.397C442.533 219.493 442.232 217.239 442.232 214.635V208.58C442.232 206.008 442.517 203.77 443.086 201.866C443.672 199.946 444.519 198.35 445.625 197.081C446.732 195.811 448.051 194.867 449.581 194.249C451.127 193.63 452.868 193.321 454.805 193.321C457.474 193.321 459.664 193.769 461.373 194.664C463.098 195.559 464.4 196.886 465.279 198.643C466.174 200.401 466.711 202.558 466.89 205.113H459.981C459.867 203.616 459.615 202.444 459.224 201.598C458.85 200.751 458.321 200.149 457.637 199.791C456.954 199.417 456.067 199.229 454.976 199.229C454.032 199.229 453.21 199.4 452.51 199.742C451.81 200.068 451.224 200.605 450.752 201.353C450.28 202.102 449.93 203.062 449.703 204.234C449.475 205.406 449.361 206.838 449.361 208.531V214.635C449.361 216.311 449.491 217.743 449.751 218.932C450.012 220.12 450.394 221.088 450.899 221.837C451.42 222.585 452.071 223.131 452.852 223.473C453.65 223.798 454.585 223.961 455.66 223.961C456.522 223.961 457.214 223.871 457.735 223.692C458.256 223.513 458.671 223.326 458.98 223.131C459.305 222.919 459.574 222.756 459.786 222.642V216.099H454.683V210.704H466.915ZM496.919 193.834V229.381H490.01L478.853 207.14V229.381H472.066V193.834H478.877L490.132 216.319V193.834H496.919Z" fill="white"/>
<path d="M290.656 272.381C287.243 286.17 279.091 313.115 302.418 313.691C308.676 313.846 314.487 313.238 317.718 307.236C320.332 302.383 313.929 299.736 309.962 302.381C304.854 305.787 301.781 310.41 300.123 317.134C298.696 322.924 298.064 327.169 300.962 332.381C305.973 341.392 316.342 341.846 326.462 339.881C334.188 338.381 339.22 337.297 344.876 334.155C345.794 333.645 351.475 330.177 351.329 330.381C348.747 333.995 344.151 338.576 340.962 341.732C339.962 342.755 339.284 343.559 338.462 344.381C337.863 344.98 339.557 343.177 339.962 342.755C343.442 339.142 347.641 334.957 350.82 331.072C352.812 328.637 346.462 327.881 343.962 327.881C339.947 327.881 336.462 327.881 333.688 327.461" stroke="#746BEB" stroke-width="4" stroke-linecap="round"/>
<line x1="280.462" y1="162.381" x2="340.462" y2="162.381" stroke="#746BEB" stroke-width="4" stroke-linecap="round" stroke-dasharray="8 8"/>
<rect x="1285.46" y="695.381" width="401" height="275" rx="43" stroke="#7FBC8C" stroke-width="4"/>
<path d="M1467.96 856.453H1475.09V880.867C1475.09 883.602 1474.59 885.831 1473.58 887.557C1472.59 889.266 1471.21 890.519 1469.45 891.316C1467.69 892.098 1465.68 892.488 1463.42 892.488C1461.14 892.488 1459.12 892.098 1457.34 891.316C1455.57 890.519 1454.19 889.266 1453.19 887.557C1452.22 885.831 1451.73 883.602 1451.73 880.867V856.453H1458.86V880.867C1458.86 882.413 1459.03 883.602 1459.37 884.432C1459.73 885.262 1460.24 885.831 1460.91 886.141C1461.59 886.434 1462.43 886.58 1463.42 886.58C1464.43 886.58 1465.26 886.434 1465.91 886.141C1466.58 885.831 1467.08 885.262 1467.43 884.432C1467.78 883.602 1467.96 882.413 1467.96 880.867V856.453ZM1487.98 856.453V892H1480.88V856.453H1487.98ZM1514.89 892H1508.61L1508.66 886.092H1514.89C1516.61 886.092 1517.95 885.783 1518.92 885.164C1519.88 884.546 1520.55 883.569 1520.94 882.234C1521.35 880.9 1521.55 879.15 1521.55 876.985V871.443C1521.55 869.799 1521.45 868.408 1521.23 867.269C1521.02 866.113 1520.66 865.185 1520.16 864.485C1519.66 863.769 1518.98 863.24 1518.13 862.898C1517.29 862.557 1516.24 862.386 1514.98 862.386H1508.49V856.453H1514.98C1517.04 856.453 1518.9 856.787 1520.58 857.454C1522.25 858.121 1523.69 859.098 1524.9 860.384C1526.1 861.653 1527.03 863.224 1527.68 865.096C1528.33 866.967 1528.66 869.1 1528.66 871.492V876.985C1528.66 879.394 1528.33 881.526 1527.68 883.382C1527.03 885.237 1526.1 886.808 1524.9 888.094C1523.71 889.363 1522.27 890.332 1520.58 890.999C1518.88 891.666 1516.99 892 1514.89 892ZM1512.76 856.453V892H1505.61V856.453H1512.76ZM1554.27 886.092V892H1538.81V886.092H1554.27ZM1541.03 856.453V892H1533.88V856.453H1541.03ZM1552.19 870.857V876.595H1538.81V870.857H1552.19ZM1554.22 856.453V862.386H1538.81V856.453H1554.22ZM1573.48 882.649C1573.48 882.015 1573.42 881.437 1573.31 880.916C1573.2 880.395 1572.95 879.915 1572.58 879.476C1572.22 879.036 1571.69 878.597 1570.99 878.157C1570.31 877.718 1569.41 877.262 1568.3 876.79C1566.99 876.237 1565.71 875.651 1564.47 875.032C1563.23 874.397 1562.12 873.665 1561.13 872.835C1560.13 872.005 1559.34 871.028 1558.76 869.905C1558.19 868.766 1557.9 867.431 1557.9 865.901C1557.9 864.404 1558.17 863.045 1558.71 861.824C1559.26 860.604 1560.04 859.562 1561.05 858.699C1562.06 857.82 1563.24 857.145 1564.59 856.673C1565.96 856.201 1567.48 855.965 1569.16 855.965C1571.44 855.965 1573.41 856.437 1575.07 857.381C1576.74 858.325 1578.04 859.619 1578.95 861.263C1579.88 862.907 1580.34 864.795 1580.34 866.927H1573.21C1573.21 865.918 1573.07 865.031 1572.77 864.266C1572.5 863.484 1572.05 862.874 1571.43 862.435C1570.81 861.995 1570.01 861.775 1569.04 861.775C1568.13 861.775 1567.37 861.963 1566.77 862.337C1566.18 862.695 1565.74 863.191 1565.45 863.826C1565.17 864.445 1565.03 865.145 1565.03 865.926C1565.03 866.512 1565.17 867.041 1565.45 867.513C1565.74 867.968 1566.14 868.383 1566.64 868.758C1567.15 869.116 1567.74 869.466 1568.43 869.808C1569.13 870.149 1569.89 870.483 1570.72 870.809C1572.33 871.443 1573.76 872.143 1574.99 872.908C1576.23 873.657 1577.26 874.503 1578.09 875.447C1578.92 876.375 1579.55 877.425 1579.97 878.597C1580.4 879.769 1580.61 881.103 1580.61 882.601C1580.61 884.082 1580.35 885.433 1579.83 886.653C1579.32 887.858 1578.58 888.899 1577.61 889.778C1576.63 890.641 1575.45 891.308 1574.07 891.78C1572.7 892.252 1571.17 892.488 1569.48 892.488C1567.83 892.488 1566.28 892.26 1564.81 891.805C1563.35 891.333 1562.05 890.625 1560.93 889.681C1559.82 888.72 1558.95 887.508 1558.32 886.043C1557.68 884.562 1557.37 882.812 1557.37 880.794H1564.52C1564.52 881.868 1564.63 882.788 1564.84 883.553C1565.05 884.301 1565.38 884.904 1565.81 885.359C1566.25 885.799 1566.79 886.132 1567.43 886.36C1568.08 886.572 1568.82 886.678 1569.65 886.678C1570.59 886.678 1571.34 886.499 1571.89 886.141C1572.46 885.783 1572.87 885.302 1573.11 884.7C1573.36 884.098 1573.48 883.414 1573.48 882.649ZM1592.87 856.453V892H1585.76V856.453H1592.87ZM1623.11 873.323V887.972C1622.61 888.509 1621.87 889.135 1620.89 889.852C1619.93 890.551 1618.67 891.17 1617.11 891.707C1615.56 892.228 1613.67 892.488 1611.44 892.488C1609.47 892.488 1607.68 892.179 1606.07 891.561C1604.48 890.942 1603.1 890.006 1601.95 888.753C1600.81 887.483 1599.94 885.905 1599.33 884.017C1598.73 882.112 1598.43 879.858 1598.43 877.254V871.199C1598.43 868.628 1598.72 866.39 1599.29 864.485C1599.87 862.565 1600.72 860.97 1601.83 859.7C1602.93 858.431 1604.25 857.487 1605.78 856.868C1607.33 856.25 1609.07 855.94 1611 855.94C1613.67 855.94 1615.86 856.388 1617.57 857.283C1619.3 858.178 1620.6 859.505 1621.48 861.263C1622.37 863.021 1622.91 865.177 1623.09 867.732H1616.18C1616.07 866.235 1615.81 865.063 1615.42 864.217C1615.05 863.37 1614.52 862.768 1613.84 862.41C1613.15 862.036 1612.27 861.849 1611.18 861.849C1610.23 861.849 1609.41 862.02 1608.71 862.361C1608.01 862.687 1607.42 863.224 1606.95 863.973C1606.48 864.721 1606.13 865.682 1605.9 866.854C1605.67 868.025 1605.56 869.458 1605.56 871.15V877.254C1605.56 878.93 1605.69 880.363 1605.95 881.551C1606.21 882.739 1606.59 883.707 1607.1 884.456C1607.62 885.205 1608.27 885.75 1609.05 886.092C1609.85 886.417 1610.79 886.58 1611.86 886.58C1612.72 886.58 1613.41 886.491 1613.93 886.312C1614.46 886.132 1614.87 885.945 1615.18 885.75C1615.51 885.538 1615.77 885.376 1615.99 885.262V878.719H1610.88V873.323H1623.11ZM1653.12 856.453V892H1646.21L1635.05 869.759V892H1628.27V856.453H1635.08L1646.33 878.938V856.453H1653.12Z" fill="white"/>
<path fill-rule="evenodd" clip-rule="evenodd" d="M1561.82 913.419C1562.76 912.403 1564.31 912 1566.32 912C1568.27 912 1569.97 912.355 1570.96 913.579C1571.95 914.796 1571.66 916.211 1571.58 916.592C1571.57 916.611 1571.57 916.627 1571.57 916.641C1571.43 917.346 1571.31 917.973 1571.2 918.541C1570.64 921.398 1570.37 922.796 1569.94 925.48C1569.82 926.231 1569.6 927.121 1569.22 928.035C1570.28 928.985 1571.75 929.66 1573.72 929.66C1575.79 929.66 1576.96 928.916 1577.69 928.063C1577.7 928.05 1577.72 928.036 1577.73 928.023C1577.29 927.23 1576.98 926.447 1576.76 925.746C1576.39 924.541 1575.76 922.004 1575.24 919.835C1574.97 918.736 1574.73 917.709 1574.55 916.956C1574.46 916.58 1574.39 916.272 1574.34 916.058L1574.33 916.031C1574.23 916.058 1574.23 916.057 1574.23 916.056L1574.22 916.052L1574.22 916.043L1574.22 916.025C1574.22 916.013 1574.21 916 1574.21 915.986C1574.2 915.959 1574.2 915.929 1574.19 915.897C1574.18 915.833 1574.17 915.758 1574.16 915.673C1574.14 915.506 1574.14 915.294 1574.17 915.052C1574.24 914.548 1574.45 913.958 1574.94 913.426C1575.88 912.405 1577.41 912 1579.42 912C1581.35 912 1583.05 912.357 1584.03 913.586C1585.01 914.8 1584.72 916.208 1584.64 916.589L1584.64 916.589L1584.63 916.637C1584.5 917.343 1584.38 917.969 1584.27 918.538L1584.27 918.538C1583.72 921.395 1583.45 922.792 1583.02 925.477C1582.91 926.146 1582.73 926.926 1582.43 927.735C1583.52 928.839 1585.09 929.66 1587.3 929.66C1589.4 929.66 1590.59 928.911 1591.32 928.056C1591.34 928.037 1591.36 928.018 1591.37 927.999C1590.94 927.214 1590.63 926.44 1590.42 925.746C1590.05 924.546 1589.42 922.051 1588.9 919.917C1588.63 918.837 1588.39 917.829 1588.21 917.091C1588.12 916.721 1588.05 916.42 1588 916.21L1587.96 916.028C1587.82 916.062 1587.82 916.062 1587.82 916.061L1587.82 916.056L1587.82 916.048L1587.82 916.029C1587.81 916.017 1587.81 916.004 1587.81 915.99C1587.8 915.963 1587.79 915.933 1587.79 915.9C1587.78 915.836 1587.76 915.76 1587.76 915.675C1587.74 915.506 1587.74 915.293 1587.77 915.049C1587.84 914.541 1588.06 913.95 1588.55 913.419C1589.49 912.403 1591.03 912 1593.04 912C1594.99 912 1596.69 912.355 1597.68 913.579C1598.67 914.796 1598.38 916.211 1598.3 916.592C1598.3 916.611 1598.29 916.627 1598.29 916.641C1598.15 917.346 1598.03 917.973 1597.92 918.541L1597.92 918.542C1597.37 921.399 1597.09 922.796 1596.66 925.48C1596.55 926.144 1596.37 926.917 1596.07 927.72C1597.16 928.831 1598.74 929.66 1600.95 929.66C1602.86 929.66 1604.01 929.046 1604.76 928.295C1604.25 927.408 1603.88 926.523 1603.65 925.741C1603.27 924.489 1602.74 921.942 1602.32 919.821C1602.11 918.736 1601.92 917.723 1601.78 916.982C1601.71 916.612 1601.66 916.309 1601.62 916.098L1601.61 916.031C1601.48 916.062 1601.48 916.062 1601.48 916.061L1601.48 916.056L1601.48 916.048L1601.47 916.029C1601.47 916.017 1601.47 916.004 1601.46 915.99C1601.46 915.963 1601.45 915.933 1601.45 915.9C1601.43 915.836 1601.42 915.76 1601.42 915.675C1601.4 915.506 1601.4 915.293 1601.43 915.049C1601.49 914.541 1601.71 913.95 1602.2 913.419C1603.14 912.403 1604.69 912 1606.7 912C1608.65 912 1610.35 912.355 1611.34 913.579C1612.33 914.796 1612.04 916.211 1611.96 916.592L1611.96 916.593C1611.96 916.612 1611.95 916.627 1611.95 916.641C1611.81 917.346 1611.69 917.973 1611.58 918.541C1611.02 921.398 1610.75 922.796 1610.32 925.48C1610.2 926.231 1609.98 927.121 1609.61 928.035C1610.67 928.985 1612.13 929.66 1614.1 929.66C1616.18 929.66 1617.34 928.916 1618.07 928.063C1618.09 928.05 1618.1 928.036 1618.11 928.023C1617.67 927.23 1617.36 926.447 1617.14 925.746C1616.77 924.541 1616.14 922.004 1615.62 919.835C1615.35 918.736 1615.11 917.709 1614.93 916.956C1614.84 916.58 1614.77 916.272 1614.72 916.058L1614.71 916.031C1614.61 916.058 1614.61 916.057 1614.61 916.056L1614.61 916.052L1614.6 916.043L1614.6 916.025L1614.6 916.01L1614.59 915.986C1614.58 915.959 1614.58 915.929 1614.57 915.897C1614.56 915.833 1614.55 915.758 1614.54 915.673C1614.53 915.506 1614.52 915.294 1614.55 915.052C1614.62 914.548 1614.84 913.958 1615.32 913.426C1616.26 912.405 1617.79 912 1619.8 912C1621.73 912 1623.43 912.357 1624.41 913.586C1625.39 914.8 1625.1 916.208 1625.03 916.589C1625.02 916.608 1625.02 916.624 1625.02 916.637C1624.88 917.343 1624.76 917.969 1624.65 918.538L1624.65 918.538C1624.1 921.395 1623.83 922.793 1623.4 925.477C1623.29 926.146 1623.11 926.926 1622.81 927.735C1623.9 928.839 1625.47 929.66 1627.68 929.66C1629.78 929.66 1630.97 928.911 1631.71 928.056C1631.72 928.037 1631.74 928.018 1631.75 927.999C1631.32 927.214 1631.01 926.44 1630.8 925.746C1630.43 924.546 1629.8 922.051 1629.28 919.917C1629.01 918.837 1628.77 917.829 1628.59 917.091C1628.5 916.721 1628.43 916.42 1628.38 916.21L1628.34 916.028C1628.2 916.062 1628.2 916.062 1628.2 916.061L1628.2 916.056L1628.2 916.048L1628.2 916.029L1628.19 916.01L1628.19 915.99C1628.18 915.963 1628.17 915.933 1628.17 915.9C1628.16 915.836 1628.15 915.76 1628.14 915.675C1628.12 915.506 1628.12 915.293 1628.15 915.049C1628.22 914.541 1628.44 913.95 1628.93 913.419C1629.87 912.403 1631.41 912 1633.42 912C1635.37 912 1637.07 912.355 1638.06 913.579C1639.05 914.796 1638.76 916.211 1638.68 916.592C1638.68 916.611 1638.67 916.627 1638.67 916.641C1638.54 917.328 1638.42 917.94 1638.31 918.497L1638.31 918.521L1638.3 918.541L1638.3 918.541L1638.3 918.543C1637.75 921.399 1637.47 922.796 1637.04 925.48C1636.93 926.144 1636.75 926.917 1636.45 927.719C1637.54 928.831 1639.12 929.66 1641.33 929.66C1643.15 929.66 1644.28 929.102 1645.03 928.401L1641.86 916.056L1641.86 916.052L1641.86 916.048L1641.86 916.029C1641.85 916.025 1641.85 916.02 1641.85 916.015C1641.85 916.007 1641.85 915.999 1641.85 915.99C1641.84 915.963 1641.83 915.933 1641.83 915.9C1641.82 915.836 1641.8 915.76 1641.8 915.675C1641.78 915.506 1641.78 915.293 1641.81 915.049C1641.88 914.541 1642.09 913.95 1642.59 913.419C1643.53 912.403 1645.07 912 1647.08 912C1649.03 912 1650.73 912.355 1651.72 913.579C1652.71 914.796 1652.42 916.211 1652.34 916.592C1652.34 916.611 1652.33 916.627 1652.33 916.641C1652.2 917.338 1652.07 917.958 1651.96 918.522L1651.96 918.541L1651.96 918.541C1651.4 921.399 1651.13 922.796 1650.7 925.48C1650.46 926.964 1649.85 928.986 1648.39 930.671C1646.87 932.43 1644.57 933.66 1641.33 933.66C1638.25 933.66 1635.95 932.604 1634.28 931.159C1632.77 932.653 1630.6 933.66 1627.68 933.66C1624.6 933.66 1622.31 932.612 1620.64 931.176C1619.14 932.66 1617 933.66 1614.1 933.66C1611.19 933.66 1608.98 932.702 1607.34 931.363C1605.84 932.744 1603.74 933.66 1600.95 933.66C1597.87 933.66 1595.57 932.604 1593.9 931.159C1592.38 932.653 1590.22 933.66 1587.3 933.66C1584.22 933.66 1581.93 932.612 1580.26 931.176C1578.76 932.659 1576.62 933.66 1573.72 933.66C1570.8 933.66 1568.59 932.702 1566.96 931.363C1565.46 932.744 1563.36 933.66 1560.57 933.66C1554.01 933.66 1551 928.888 1550.04 925.746C1549.66 924.517 1549.03 921.741 1548.51 919.372C1548.24 918.165 1548 917.031 1547.82 916.199C1547.73 915.783 1547.66 915.442 1547.61 915.205L1547.55 914.93L1547.53 914.858L1547.53 914.839L1547.53 914.835L1547.53 914.833L1547.53 914.833C1547.53 914.833 1547.53 914.833 1549.49 914.424L1551.44 914.015L1551.44 914.015L1551.45 914.016L1551.45 914.021L1551.45 914.038L1551.46 914.109L1551.52 914.38C1551.57 914.614 1551.64 914.952 1551.73 915.365C1551.91 916.192 1552.15 917.316 1552.41 918.511C1552.95 920.942 1553.54 923.535 1553.86 924.576C1554.54 926.802 1556.46 929.66 1560.57 929.66C1562.48 929.66 1563.63 929.046 1564.38 928.295C1563.87 927.408 1563.5 926.523 1563.27 925.741C1562.89 924.489 1562.36 921.942 1561.94 919.821C1561.73 918.736 1561.54 917.723 1561.4 916.982C1561.33 916.612 1561.28 916.309 1561.24 916.098L1561.22 916.031C1561.1 916.062 1561.1 916.062 1561.1 916.061L1561.1 916.056L1561.1 916.048L1561.09 916.029C1561.09 916.017 1561.09 916.004 1561.08 915.99C1561.08 915.963 1561.07 915.933 1561.07 915.9C1561.05 915.836 1561.04 915.76 1561.03 915.675C1561.02 915.506 1561.01 915.293 1561.05 915.049C1561.11 914.541 1561.33 913.95 1561.82 913.419ZM1633.72 921.199C1633.91 920.179 1634.11 919.132 1634.38 917.766L1634.38 917.766C1634.48 917.259 1634.58 916.709 1634.7 916.099C1634.43 916.046 1634.02 916 1633.42 916C1633.01 916 1632.7 916.022 1632.46 916.053C1632.46 916.087 1632.47 916.121 1632.48 916.157C1632.66 916.89 1632.9 917.891 1633.16 918.962C1633.34 919.704 1633.54 920.469 1633.72 921.199ZM1620.72 917.769C1620.46 919.135 1620.26 920.182 1620.07 921.202C1619.88 920.452 1619.69 919.661 1619.51 918.895C1619.24 917.813 1619 916.8 1618.83 916.054C1619.07 916.023 1619.38 916 1619.8 916C1620.38 916 1620.78 916.044 1621.05 916.096C1620.93 916.708 1620.82 917.261 1620.72 917.769ZM1607.66 917.767L1607.66 917.766L1607.66 917.765L1607.66 917.756L1607.66 917.743C1607.76 917.243 1607.86 916.7 1607.98 916.099C1607.71 916.046 1607.3 916 1606.7 916C1606.26 916 1605.92 916.026 1605.68 916.06L1605.71 916.251C1605.85 916.983 1606.04 917.982 1606.25 919.051C1606.44 920.05 1606.65 921.08 1606.85 922C1607.08 920.706 1607.32 919.491 1607.66 917.767ZM1605.36 915.083L1605.36 915.076L1605.35 915.06L1605.35 915.052L1605.35 915.047C1605.35 915.046 1605.35 915.045 1604.87 915.171L1605.36 915.083ZM1594 917.766C1593.73 919.132 1593.53 920.179 1593.34 921.199C1593.15 920.47 1592.96 919.704 1592.78 918.962C1592.52 917.891 1592.28 916.89 1592.1 916.157L1592.07 916.053C1592.32 916.022 1592.63 916 1593.04 916C1593.64 916 1594.05 916.046 1594.32 916.099C1594.2 916.701 1594.1 917.246 1594 917.748L1594 917.766ZM1579.69 921.201C1579.88 920.182 1580.08 919.135 1580.34 917.769L1580.34 917.769L1580.35 917.757C1580.44 917.252 1580.55 916.703 1580.67 916.096C1580.4 916.044 1580 916 1579.42 916C1579 916 1578.69 916.023 1578.45 916.054C1578.62 916.8 1578.86 917.813 1579.12 918.895C1579.31 919.661 1579.5 920.451 1579.69 921.201ZM1567.28 917.766C1566.94 919.49 1566.7 920.706 1566.47 922C1566.27 921.08 1566.06 920.05 1565.87 919.051C1565.66 917.982 1565.47 916.983 1565.33 916.251L1565.3 916.06C1565.54 916.026 1565.88 916 1566.32 916C1566.92 916 1567.33 916.046 1567.6 916.099C1567.48 916.706 1567.37 917.254 1567.28 917.759L1567.28 917.766ZM1564.98 915.076L1564.98 915.083L1564.49 915.171C1564.97 915.045 1564.97 915.046 1564.97 915.047L1564.97 915.052L1564.97 915.06L1564.98 915.076ZM1648.04 917.767C1647.76 919.199 1647.55 920.28 1647.35 921.347L1645.99 916.069C1646.25 916.031 1646.6 916 1647.08 916C1647.68 916 1648.09 916.046 1648.36 916.099C1648.24 916.708 1648.14 917.259 1648.04 917.765L1648.04 917.767Z" fill="#7FBC8C"/>
<path d="M1587.48 756L1570.16 747.441L1569.6 747.167L1569.3 746.628L1560 730.082L1550.7 746.628L1550.4 747.167L1549.84 747.441L1532.52 756L1549.84 764.559L1550.4 764.833L1550.7 765.372L1560 781.918L1569.3 765.372L1569.6 764.833L1570.16 764.559L1587.48 756Z" stroke="#7FBC8C" stroke-width="4"/>
<path d="M1618.48 756L1601.16 747.441L1600.6 747.167L1600.3 746.628L1591 730.082L1581.7 746.628L1581.4 747.167L1580.84 747.441L1563.52 756L1580.84 764.559L1581.4 764.833L1581.7 765.372L1591 781.918L1600.3 765.372L1600.6 764.833L1601.16 764.559L1618.48 756Z" fill="#FFC700" stroke="#7FBC8C" stroke-width="4"/>
<path d="M1651.48 756L1634.16 747.441L1633.6 747.167L1633.3 746.628L1624 730.082L1614.7 746.628L1614.4 747.167L1613.84 747.441L1596.52 756L1613.84 764.559L1614.4 764.833L1614.7 765.372L1624 781.918L1633.3 765.372L1633.6 764.833L1634.16 764.559L1651.48 756Z" fill="#FFC700" stroke="#7FBC8C" stroke-width="4"/>
<rect x="533" y="128" width="520" height="616" rx="47" fill="white" stroke="black" stroke-width="4"/>
<rect x="587.462" y="291.381" width="193" height="103" rx="14" stroke="black" stroke-width="4"/>
<rect x="808.462" y="293.381" width="191" height="18" rx="6" stroke="black" stroke-width="4"/>
<rect x="587" y="455" width="236" height="29" rx="6" stroke="black" stroke-width="4"/>
<rect x="808.462" y="332.381" width="191" height="19" rx="6" stroke="black" stroke-width="4"/>
<rect x="808.462" y="372.381" width="160" height="18" rx="6" stroke="black" stroke-width="4"/>
<path d="M683.462 323.381L688.864 337.979L703.462 343.381L688.864 348.783L683.462 363.381L678.061 348.783L663.462 343.381L678.061 337.979L683.462 323.381Z" fill="black"/>
<rect x="587" y="512" width="114" height="103" rx="14" stroke="black" stroke-width="4"/>
<path d="M644 544L649.402 558.598L664 564L649.402 569.402L644 584L638.598 569.402L624 564L638.598 558.598L644 544Z" fill="black"/>
<rect x="736" y="512" width="114" height="103" rx="14" stroke="black" stroke-width="4"/>
<path d="M793 544L798.402 558.598L813 564L798.402 569.402L793 584L787.598 569.402L773 564L787.598 558.598L793 544Z" fill="black"/>
<rect x="885" y="512" width="114" height="103" rx="14" stroke="black" stroke-width="4"/>
<path d="M942 544L947.402 558.598L962 564L947.402 569.402L942 584L936.598 569.402L922 564L936.598 558.598L942 544Z" fill="black"/>
<path d="M601.57 230.498H593.325V225.046H601.57C602.913 225.046 603.996 224.76 604.819 224.187C605.661 223.614 606.27 222.826 606.646 221.824C607.039 220.821 607.236 219.684 607.236 218.413C607.236 217.196 607.039 216.05 606.646 214.976C606.27 213.901 605.67 213.033 604.846 212.371C604.023 211.708 602.931 211.377 601.57 211.377H595.151V245H588.652V205.898H601.57C604.148 205.898 606.35 206.436 608.176 207.51C610.002 208.584 611.399 210.061 612.366 211.941C613.333 213.803 613.816 215.942 613.816 218.359C613.816 220.884 613.333 223.05 612.366 224.858C611.399 226.667 610.002 228.063 608.176 229.048C606.35 230.015 604.148 230.498 601.57 230.498ZM625.337 221.555V245H619.08V215.942H625.042L625.337 221.555ZM632.346 215.754L632.319 221.931C631.961 221.842 631.576 221.788 631.165 221.77C630.771 221.734 630.377 221.716 629.983 221.716C629.124 221.716 628.381 221.868 627.754 222.173C627.127 222.477 626.599 222.916 626.169 223.489C625.74 224.062 625.4 224.751 625.149 225.557C624.916 226.362 624.773 227.275 624.719 228.296L623.376 228.35C623.376 226.523 623.52 224.832 623.806 223.274C624.093 221.698 624.522 220.329 625.095 219.165C625.686 217.983 626.42 217.061 627.297 216.399C628.175 215.736 629.195 215.405 630.359 215.405C630.681 215.405 631.048 215.441 631.46 215.513C631.872 215.584 632.167 215.665 632.346 215.754ZM634.924 231.653V229.316C634.924 227.061 635.202 225.064 635.757 223.328C636.312 221.591 637.1 220.141 638.12 218.977C639.159 217.795 640.376 216.909 641.772 216.318C643.169 215.71 644.709 215.405 646.392 215.405C648.11 215.405 649.668 215.71 651.064 216.318C652.479 216.909 653.696 217.795 654.717 218.977C655.755 220.141 656.552 221.591 657.107 223.328C657.662 225.064 657.939 227.061 657.939 229.316V231.653C657.939 233.909 657.662 235.905 657.107 237.642C656.552 239.378 655.755 240.837 654.717 242.019C653.696 243.183 652.488 244.06 651.091 244.651C649.695 245.242 648.146 245.537 646.445 245.537C644.762 245.537 643.214 245.242 641.799 244.651C640.403 244.06 639.185 243.183 638.147 242.019C637.109 240.837 636.312 239.378 635.757 237.642C635.202 235.905 634.924 233.909 634.924 231.653ZM641.182 229.316V231.653C641.182 233.103 641.307 234.374 641.558 235.466C641.808 236.541 642.166 237.436 642.632 238.152C643.097 238.868 643.652 239.405 644.297 239.763C644.941 240.121 645.658 240.3 646.445 240.3C647.323 240.3 648.083 240.121 648.728 239.763C649.39 239.405 649.937 238.868 650.366 238.152C650.814 237.436 651.145 236.541 651.36 235.466C651.575 234.374 651.682 233.103 651.682 231.653V229.316C651.682 227.884 651.557 226.631 651.306 225.557C651.056 224.465 650.697 223.56 650.232 222.844C649.766 222.11 649.202 221.564 648.54 221.206C647.896 220.848 647.179 220.669 646.392 220.669C645.622 220.669 644.915 220.848 644.27 221.206C643.643 221.564 643.097 222.11 642.632 222.844C642.166 223.56 641.808 224.465 641.558 225.557C641.307 226.631 641.182 227.884 641.182 229.316ZM663.579 215.942H669.863V247.471C669.863 249.458 669.568 251.141 668.977 252.52C668.404 253.898 667.554 254.945 666.426 255.662C665.298 256.378 663.901 256.736 662.236 256.736C661.735 256.736 661.207 256.691 660.652 256.602C660.115 256.53 659.604 256.423 659.121 256.279L659.148 251.123C659.488 251.195 659.828 251.248 660.168 251.284C660.509 251.338 660.813 251.365 661.082 251.365C661.637 251.365 662.093 251.23 662.451 250.962C662.827 250.693 663.105 250.273 663.284 249.7C663.481 249.127 663.579 248.384 663.579 247.471V215.942ZM663.123 208.342C663.123 207.34 663.427 206.507 664.036 205.845C664.662 205.164 665.504 204.824 666.56 204.824C667.652 204.824 668.503 205.164 669.111 205.845C669.738 206.507 670.051 207.34 670.051 208.342C670.051 209.309 669.738 210.124 669.111 210.786C668.503 211.449 667.652 211.78 666.56 211.78C665.504 211.78 664.662 211.449 664.036 210.786C663.427 210.124 663.123 209.309 663.123 208.342ZM687.454 245.537C685.574 245.537 683.9 245.26 682.432 244.705C680.964 244.132 679.719 243.29 678.699 242.18C677.678 241.052 676.899 239.674 676.362 238.044C675.825 236.397 675.557 234.491 675.557 232.324V229.531C675.557 227.078 675.834 224.966 676.389 223.193C676.962 221.403 677.75 219.935 678.752 218.789C679.755 217.643 680.937 216.793 682.297 216.238C683.676 215.683 685.171 215.405 686.782 215.405C688.608 215.405 690.193 215.701 691.536 216.292C692.878 216.882 693.979 217.769 694.839 218.95C695.716 220.132 696.361 221.591 696.772 223.328C697.202 225.064 697.417 227.061 697.417 229.316V232.458H678.564V227.732H691.24V227.061C691.204 225.736 691.043 224.599 690.757 223.65C690.47 222.683 690.005 221.949 689.36 221.448C688.734 220.929 687.865 220.669 686.755 220.669C685.95 220.669 685.234 220.821 684.607 221.125C683.98 221.43 683.461 221.922 683.049 222.603C682.655 223.283 682.351 224.196 682.136 225.342C681.921 226.47 681.814 227.866 681.814 229.531V232.324C681.814 233.774 681.939 235.001 682.19 236.003C682.458 237.006 682.852 237.83 683.372 238.474C683.891 239.101 684.517 239.566 685.251 239.871C686.003 240.157 686.872 240.3 687.856 240.3C689.307 240.3 690.551 240.032 691.589 239.495C692.646 238.94 693.559 238.223 694.329 237.346L697.095 241.187C696.576 241.885 695.877 242.574 695 243.254C694.123 243.917 693.057 244.463 691.804 244.893C690.569 245.322 689.119 245.537 687.454 245.537ZM712.751 240.3C713.557 240.3 714.273 240.13 714.9 239.79C715.544 239.45 716.055 238.922 716.431 238.206C716.807 237.472 717.013 236.523 717.048 235.359H722.93C722.894 237.418 722.419 239.217 721.506 240.757C720.593 242.279 719.376 243.46 717.854 244.302C716.35 245.125 714.676 245.537 712.832 245.537C710.916 245.537 709.242 245.233 707.81 244.624C706.396 243.997 705.223 243.093 704.292 241.912C703.361 240.73 702.663 239.298 702.197 237.615C701.75 235.914 701.526 233.971 701.526 231.787V229.155C701.526 226.989 701.75 225.055 702.197 223.354C702.663 221.654 703.361 220.212 704.292 219.031C705.223 217.849 706.396 216.954 707.81 216.345C709.224 215.719 710.889 215.405 712.805 215.405C714.846 215.405 716.61 215.835 718.096 216.694C719.6 217.536 720.772 218.771 721.614 220.4C722.455 222.03 722.894 224.026 722.93 226.389H717.048C717.013 225.136 716.825 224.089 716.484 223.247C716.144 222.388 715.661 221.743 715.034 221.313C714.425 220.884 713.656 220.669 712.725 220.669C711.704 220.669 710.863 220.866 710.2 221.26C709.556 221.636 709.054 222.191 708.696 222.925C708.356 223.659 708.114 224.554 707.971 225.61C707.846 226.649 707.783 227.83 707.783 229.155V231.787C707.783 233.148 707.846 234.356 707.971 235.413C708.097 236.451 708.329 237.337 708.669 238.071C709.028 238.805 709.538 239.36 710.2 239.736C710.863 240.112 711.713 240.3 712.751 240.3ZM739.526 215.942V220.776H725.266V215.942H739.526ZM729.16 208.826H735.391V236.89C735.391 237.785 735.489 238.465 735.686 238.931C735.883 239.396 736.16 239.709 736.519 239.871C736.877 240.032 737.297 240.112 737.781 240.112C738.139 240.112 738.488 240.085 738.828 240.032C739.186 239.96 739.446 239.897 739.607 239.844V244.893C739.141 245.072 738.604 245.224 737.996 245.349C737.387 245.474 736.653 245.537 735.793 245.537C734.522 245.537 733.385 245.278 732.383 244.758C731.38 244.221 730.592 243.353 730.02 242.153C729.447 240.936 729.16 239.325 729.16 237.319V208.826ZM772.263 205.764V245H766.006V213.606L758.218 216.829V211.377L771.511 205.764H772.263Z" fill="black"/>
<rect x="910" y="313" width="520" height="616" rx="47" fill="white" stroke="black" stroke-width="4"/>
<rect x="1057" y="483" width="225" height="266" rx="14" stroke="black" stroke-width="4"/>
<mask id="mask0_20_56" style="mask-type:alpha" maskUnits="userSpaceOnUse" x="908" y="316" width="524" height="620">
<rect x="910" y="318" width="520" height="616" rx="47" fill="white" stroke="black" stroke-width="4"/>
</mask>
<g mask="url(#mask0_20_56)">
<rect x="1344.61" y="510.625" width="225" height="266" rx="14" transform="rotate(4.3588 1344.61 510.625)" stroke="black" stroke-width="4"/>
<rect x="1.84221" y="-2.14622" width="225" height="266" rx="14" transform="matrix(0.997108 -0.076002 -0.076002 -0.997108 788.363 790.477)" stroke="black" stroke-width="4"/>
<path d="M1438.08 618.251L1444.94 636.148L1445.17 636.746L1445.71 637.099L1461.32 647.43L1444.32 655.275L1443.74 655.543L1443.42 656.1L1433.92 672.749L1427.06 654.852L1426.83 654.254L1426.29 653.901L1410.68 643.57L1427.68 635.725L1428.26 635.457L1428.58 634.9L1438.08 618.251Z" fill="white" stroke="black" stroke-width="4"/>
<path d="M902.918 628.688L912.596 645.399L912.918 645.953L913.502 646.218L930.764 654.036L914.887 664.38L914.349 664.73L914.116 665.327L907.082 683.312L897.403 666.601L897.082 666.047L896.498 665.782L879.236 657.964L895.113 647.62L895.65 647.27L895.884 646.673L902.918 628.688Z" fill="white" stroke="black" stroke-width="4"/>
<rect x="965" y="842" width="410" height="29" rx="6" fill="url(#paint0_linear_20_56)" stroke="black" stroke-width="4"/>
</g>
<path d="M979.57 415.498H971.325V410.046H979.57C980.913 410.046 981.996 409.76 982.819 409.187C983.661 408.614 984.27 407.826 984.646 406.824C985.039 405.821 985.236 404.684 985.236 403.413C985.236 402.196 985.039 401.05 984.646 399.976C984.27 398.901 983.67 398.033 982.846 397.371C982.023 396.708 980.931 396.377 979.57 396.377H973.151V430H966.652V390.898H979.57C982.148 390.898 984.35 391.436 986.176 392.51C988.002 393.584 989.399 395.061 990.366 396.941C991.333 398.803 991.816 400.942 991.816 403.359C991.816 405.884 991.333 408.05 990.366 409.858C989.399 411.667 988.002 413.063 986.176 414.048C984.35 415.015 982.148 415.498 979.57 415.498ZM1003.34 406.555V430H997.08V400.942H1003.04L1003.34 406.555ZM1010.35 400.754L1010.32 406.931C1009.96 406.842 1009.58 406.788 1009.16 406.77C1008.77 406.734 1008.38 406.716 1007.98 406.716C1007.12 406.716 1006.38 406.868 1005.75 407.173C1005.13 407.477 1004.6 407.916 1004.17 408.489C1003.74 409.062 1003.4 409.751 1003.15 410.557C1002.92 411.362 1002.77 412.275 1002.72 413.296L1001.38 413.35C1001.38 411.523 1001.52 409.832 1001.81 408.274C1002.09 406.698 1002.52 405.329 1003.1 404.165C1003.69 402.983 1004.42 402.061 1005.3 401.399C1006.17 400.736 1007.2 400.405 1008.36 400.405C1008.68 400.405 1009.05 400.441 1009.46 400.513C1009.87 400.584 1010.17 400.665 1010.35 400.754ZM1012.92 416.653V414.316C1012.92 412.061 1013.2 410.064 1013.76 408.328C1014.31 406.591 1015.1 405.141 1016.12 403.977C1017.16 402.795 1018.38 401.909 1019.77 401.318C1021.17 400.71 1022.71 400.405 1024.39 400.405C1026.11 400.405 1027.67 400.71 1029.06 401.318C1030.48 401.909 1031.7 402.795 1032.72 403.977C1033.76 405.141 1034.55 406.591 1035.11 408.328C1035.66 410.064 1035.94 412.061 1035.94 414.316V416.653C1035.94 418.909 1035.66 420.905 1035.11 422.642C1034.55 424.378 1033.76 425.837 1032.72 427.019C1031.7 428.183 1030.49 429.06 1029.09 429.651C1027.69 430.242 1026.15 430.537 1024.45 430.537C1022.76 430.537 1021.21 430.242 1019.8 429.651C1018.4 429.06 1017.19 428.183 1016.15 427.019C1015.11 425.837 1014.31 424.378 1013.76 422.642C1013.2 420.905 1012.92 418.909 1012.92 416.653ZM1019.18 414.316V416.653C1019.18 418.103 1019.31 419.374 1019.56 420.466C1019.81 421.541 1020.17 422.436 1020.63 423.152C1021.1 423.868 1021.65 424.405 1022.3 424.763C1022.94 425.121 1023.66 425.3 1024.45 425.3C1025.32 425.3 1026.08 425.121 1026.73 424.763C1027.39 424.405 1027.94 423.868 1028.37 423.152C1028.81 422.436 1029.15 421.541 1029.36 420.466C1029.57 419.374 1029.68 418.103 1029.68 416.653V414.316C1029.68 412.884 1029.56 411.631 1029.31 410.557C1029.06 409.465 1028.7 408.56 1028.23 407.844C1027.77 407.11 1027.2 406.564 1026.54 406.206C1025.9 405.848 1025.18 405.669 1024.39 405.669C1023.62 405.669 1022.91 405.848 1022.27 406.206C1021.64 406.564 1021.1 407.11 1020.63 407.844C1020.17 408.56 1019.81 409.465 1019.56 410.557C1019.31 411.631 1019.18 412.884 1019.18 414.316ZM1041.58 400.942H1047.86V432.471C1047.86 434.458 1047.57 436.141 1046.98 437.52C1046.4 438.898 1045.55 439.945 1044.43 440.662C1043.3 441.378 1041.9 441.736 1040.24 441.736C1039.74 441.736 1039.21 441.691 1038.65 441.602C1038.11 441.53 1037.6 441.423 1037.12 441.279L1037.15 436.123C1037.49 436.195 1037.83 436.248 1038.17 436.284C1038.51 436.338 1038.81 436.365 1039.08 436.365C1039.64 436.365 1040.09 436.23 1040.45 435.962C1040.83 435.693 1041.1 435.273 1041.28 434.7C1041.48 434.127 1041.58 433.384 1041.58 432.471V400.942ZM1041.12 393.342C1041.12 392.34 1041.43 391.507 1042.04 390.845C1042.66 390.164 1043.5 389.824 1044.56 389.824C1045.65 389.824 1046.5 390.164 1047.11 390.845C1047.74 391.507 1048.05 392.34 1048.05 393.342C1048.05 394.309 1047.74 395.124 1047.11 395.786C1046.5 396.449 1045.65 396.78 1044.56 396.78C1043.5 396.78 1042.66 396.449 1042.04 395.786C1041.43 395.124 1041.12 394.309 1041.12 393.342ZM1065.45 430.537C1063.57 430.537 1061.9 430.26 1060.43 429.705C1058.96 429.132 1057.72 428.29 1056.7 427.18C1055.68 426.052 1054.9 424.674 1054.36 423.044C1053.83 421.397 1053.56 419.491 1053.56 417.324V414.531C1053.56 412.078 1053.83 409.966 1054.39 408.193C1054.96 406.403 1055.75 404.935 1056.75 403.789C1057.76 402.643 1058.94 401.793 1060.3 401.238C1061.68 400.683 1063.17 400.405 1064.78 400.405C1066.61 400.405 1068.19 400.701 1069.54 401.292C1070.88 401.882 1071.98 402.769 1072.84 403.95C1073.72 405.132 1074.36 406.591 1074.77 408.328C1075.2 410.064 1075.42 412.061 1075.42 414.316V417.458H1056.56V412.732H1069.24V412.061C1069.2 410.736 1069.04 409.599 1068.76 408.65C1068.47 407.683 1068 406.949 1067.36 406.448C1066.73 405.929 1065.87 405.669 1064.76 405.669C1063.95 405.669 1063.23 405.821 1062.61 406.125C1061.98 406.43 1061.46 406.922 1061.05 407.603C1060.66 408.283 1060.35 409.196 1060.14 410.342C1059.92 411.47 1059.81 412.866 1059.81 414.531V417.324C1059.81 418.774 1059.94 420.001 1060.19 421.003C1060.46 422.006 1060.85 422.83 1061.37 423.474C1061.89 424.101 1062.52 424.566 1063.25 424.871C1064 425.157 1064.87 425.3 1065.86 425.3C1067.31 425.3 1068.55 425.032 1069.59 424.495C1070.65 423.94 1071.56 423.223 1072.33 422.346L1075.09 426.187C1074.58 426.885 1073.88 427.574 1073 428.254C1072.12 428.917 1071.06 429.463 1069.8 429.893C1068.57 430.322 1067.12 430.537 1065.45 430.537ZM1090.75 425.3C1091.56 425.3 1092.27 425.13 1092.9 424.79C1093.54 424.45 1094.05 423.922 1094.43 423.206C1094.81 422.472 1095.01 421.523 1095.05 420.359H1100.93C1100.89 422.418 1100.42 424.217 1099.51 425.757C1098.59 427.279 1097.38 428.46 1095.85 429.302C1094.35 430.125 1092.68 430.537 1090.83 430.537C1088.92 430.537 1087.24 430.233 1085.81 429.624C1084.4 428.997 1083.22 428.093 1082.29 426.912C1081.36 425.73 1080.66 424.298 1080.2 422.615C1079.75 420.914 1079.53 418.971 1079.53 416.787V414.155C1079.53 411.989 1079.75 410.055 1080.2 408.354C1080.66 406.654 1081.36 405.212 1082.29 404.031C1083.22 402.849 1084.4 401.954 1085.81 401.345C1087.22 400.719 1088.89 400.405 1090.81 400.405C1092.85 400.405 1094.61 400.835 1096.1 401.694C1097.6 402.536 1098.77 403.771 1099.61 405.4C1100.46 407.03 1100.89 409.026 1100.93 411.389H1095.05C1095.01 410.136 1094.82 409.089 1094.48 408.247C1094.14 407.388 1093.66 406.743 1093.03 406.313C1092.43 405.884 1091.66 405.669 1090.72 405.669C1089.7 405.669 1088.86 405.866 1088.2 406.26C1087.56 406.636 1087.05 407.191 1086.7 407.925C1086.36 408.659 1086.11 409.554 1085.97 410.61C1085.85 411.649 1085.78 412.83 1085.78 414.155V416.787C1085.78 418.148 1085.85 419.356 1085.97 420.413C1086.1 421.451 1086.33 422.337 1086.67 423.071C1087.03 423.805 1087.54 424.36 1088.2 424.736C1088.86 425.112 1089.71 425.3 1090.75 425.3ZM1117.53 400.942V405.776H1103.27V400.942H1117.53ZM1107.16 393.826H1113.39V421.89C1113.39 422.785 1113.49 423.465 1113.69 423.931C1113.88 424.396 1114.16 424.709 1114.52 424.871C1114.88 425.032 1115.3 425.112 1115.78 425.112C1116.14 425.112 1116.49 425.085 1116.83 425.032C1117.19 424.96 1117.45 424.897 1117.61 424.844V429.893C1117.14 430.072 1116.6 430.224 1116 430.349C1115.39 430.474 1114.65 430.537 1113.79 430.537C1112.52 430.537 1111.39 430.278 1110.38 429.758C1109.38 429.221 1108.59 428.353 1108.02 427.153C1107.45 425.936 1107.16 424.325 1107.16 422.319V393.826ZM1157.25 424.736V430H1134.74V425.461L1145.4 411.631C1146.57 410.073 1147.46 408.73 1148.09 407.603C1148.73 406.457 1149.18 405.427 1149.43 404.514C1149.68 403.601 1149.81 402.706 1149.81 401.829C1149.81 400.611 1149.64 399.537 1149.3 398.606C1148.97 397.675 1148.49 396.95 1147.85 396.431C1147.2 395.894 1146.41 395.625 1145.48 395.625C1144.32 395.625 1143.36 395.938 1142.61 396.565C1141.86 397.174 1141.3 398.024 1140.94 399.116C1140.59 400.19 1140.41 401.426 1140.41 402.822H1134.15C1134.15 400.531 1134.59 398.445 1135.47 396.565C1136.36 394.667 1137.66 393.163 1139.36 392.053C1141.06 390.925 1143.13 390.361 1145.56 390.361C1147.82 390.361 1149.73 390.8 1151.28 391.677C1152.86 392.555 1154.05 393.808 1154.86 395.437C1155.68 397.048 1156.09 398.955 1156.09 401.157C1156.09 402.375 1155.92 403.592 1155.58 404.81C1155.26 406.009 1154.8 407.2 1154.21 408.381C1153.62 409.563 1152.9 410.754 1152.06 411.953C1151.24 413.153 1150.33 414.37 1149.35 415.605L1142.58 424.736H1157.25Z" fill="black"/>
<rect x="1081" y="686" width="133" height="18" rx="6" stroke="black" stroke-width="4"/>
<rect x="2" y="-2" width="173" height="19" rx="6" transform="matrix(1 0 0 -1 1079 669)" stroke="black" stroke-width="4"/>
<path d="M1196.45 577L1179.31 585.386L1178.74 585.668L1178.43 586.233L1169.5 602.788L1160.57 586.233L1160.26 585.668L1159.69 585.386L1142.55 577L1159.69 568.614L1160.26 568.332L1160.57 567.767L1169.5 551.212L1178.43 567.767L1178.74 568.332L1179.31 568.614L1196.45 577Z" fill="black" stroke="black" stroke-width="4"/>
<circle cx="1128" cy="783" r="5.5" stroke="black" stroke-width="3"/>
<circle cx="1149" cy="783" r="5.5" stroke="black" stroke-width="3"/>
<circle cx="1170" cy="783" r="7" fill="black"/>
<circle cx="1191" cy="783" r="5.5" stroke="black" stroke-width="3"/>
<circle cx="1212" cy="783" r="5.5" stroke="black" stroke-width="3"/>
<rect x="1207" y="242" width="406" height="109" rx="22" fill="#F3CEB4" stroke="black" stroke-width="4"/>
<path d="M1282.59 300.984H1277.94V297.187H1282.59C1283.24 297.187 1283.77 297.042 1284.17 296.75C1284.59 296.458 1284.89 296.057 1285.08 295.547C1285.27 295.026 1285.36 294.443 1285.36 293.797C1285.36 293.141 1285.26 292.531 1285.06 291.969C1284.87 291.396 1284.58 290.932 1284.17 290.578C1283.78 290.224 1283.25 290.047 1282.59 290.047H1279.41V309H1274.84V286.25H1282.59C1284.12 286.25 1285.44 286.573 1286.55 287.219C1287.65 287.865 1288.49 288.755 1289.08 289.891C1289.67 291.016 1289.97 292.307 1289.97 293.766C1289.97 295.234 1289.67 296.51 1289.08 297.594C1288.49 298.667 1287.65 299.5 1286.55 300.094C1285.44 300.687 1284.12 300.984 1282.59 300.984ZM1293.05 286.25H1300.34C1301.86 286.25 1303.16 286.51 1304.23 287.031C1305.31 287.552 1306.13 288.323 1306.7 289.344C1307.28 290.365 1307.56 291.625 1307.56 293.125C1307.56 294.354 1307.4 295.406 1307.06 296.281C1306.73 297.146 1306.26 297.87 1305.64 298.453C1305.03 299.026 1304.29 299.484 1303.44 299.828L1302.05 300.656H1296.12L1296.11 296.859H1300.22C1300.84 296.859 1301.36 296.724 1301.77 296.453C1302.18 296.172 1302.49 295.781 1302.69 295.281C1302.9 294.771 1303 294.177 1303 293.5C1303 292.781 1302.91 292.167 1302.72 291.656C1302.54 291.135 1302.26 290.74 1301.86 290.469C1301.47 290.187 1300.97 290.047 1300.34 290.047H1297.62V309H1293.05V286.25ZM1303.37 309L1299.2 298.859L1304 298.844L1308.27 308.781V309H1303.37ZM1326.73 295.859V299.656C1326.73 301.26 1326.54 302.667 1326.14 303.875C1325.76 305.073 1325.2 306.078 1324.48 306.891C1323.78 307.693 1322.92 308.297 1321.91 308.703C1320.91 309.109 1319.8 309.312 1318.58 309.312C1317.36 309.312 1316.24 309.109 1315.23 308.703C1314.23 308.297 1313.37 307.693 1312.64 306.891C1311.92 306.078 1311.36 305.073 1310.97 303.875C1310.57 302.667 1310.37 301.26 1310.37 299.656V295.859C1310.37 294.214 1310.57 292.776 1310.95 291.547C1311.34 290.307 1311.9 289.276 1312.62 288.453C1313.35 287.62 1314.22 286.995 1315.22 286.578C1316.22 286.151 1317.33 285.937 1318.55 285.937C1319.77 285.937 1320.87 286.151 1321.87 286.578C1322.87 286.995 1323.74 287.62 1324.47 288.453C1325.2 289.276 1325.76 290.307 1326.14 291.547C1326.54 292.776 1326.73 294.214 1326.73 295.859ZM1322.19 299.656V295.828C1322.19 294.745 1322.11 293.823 1321.95 293.062C1321.8 292.292 1321.56 291.661 1321.25 291.172C1320.94 290.682 1320.56 290.323 1320.11 290.094C1319.66 289.865 1319.14 289.75 1318.55 289.75C1317.95 289.75 1317.43 289.865 1316.97 290.094C1316.52 290.323 1316.14 290.682 1315.83 291.172C1315.53 291.661 1315.3 292.292 1315.14 293.062C1314.99 293.823 1314.92 294.745 1314.92 295.828V299.656C1314.92 300.698 1315 301.589 1315.16 302.328C1315.31 303.068 1315.55 303.672 1315.86 304.141C1316.17 304.609 1316.55 304.958 1317 305.187C1317.46 305.406 1317.98 305.516 1318.58 305.516C1319.16 305.516 1319.68 305.406 1320.12 305.187C1320.58 304.958 1320.96 304.609 1321.27 304.141C1321.57 303.672 1321.8 303.068 1321.95 302.328C1322.11 301.589 1322.19 300.698 1322.19 299.656ZM1337.55 301.984V286.25H1342.11V302C1342.11 303.51 1341.82 304.818 1341.23 305.922C1340.66 307.016 1339.88 307.854 1338.89 308.437C1337.9 309.021 1336.79 309.312 1335.55 309.312C1334.28 309.312 1333.14 309.062 1332.14 308.562C1331.15 308.052 1330.37 307.281 1329.8 306.25C1329.22 305.208 1328.94 303.885 1328.94 302.281H1333.53C1333.53 303.094 1333.61 303.734 1333.78 304.203C1333.95 304.672 1334.18 305.01 1334.48 305.219C1334.8 305.427 1335.15 305.531 1335.55 305.531C1335.97 305.531 1336.33 305.391 1336.62 305.109C1336.93 304.828 1337.16 304.427 1337.31 303.906C1337.47 303.375 1337.55 302.734 1337.55 301.984ZM1358.8 305.219V309H1348.91V305.219H1358.8ZM1350.33 286.25V309H1345.75V286.25H1350.33ZM1357.47 295.469V299.141H1348.91V295.469H1357.47ZM1358.77 286.25V290.047H1348.91V286.25H1358.77ZM1372.31 301.422H1376.86C1376.8 303.13 1376.45 304.573 1375.83 305.75C1375.2 306.917 1374.31 307.802 1373.16 308.406C1372.01 309.01 1370.62 309.312 1369 309.312C1367.74 309.312 1366.62 309.104 1365.64 308.687C1364.66 308.26 1363.83 307.635 1363.14 306.812C1362.45 305.99 1361.93 304.974 1361.58 303.766C1361.23 302.547 1361.06 301.146 1361.06 299.562V295.703C1361.06 294.12 1361.24 292.719 1361.61 291.5C1361.98 290.281 1362.52 289.26 1363.2 288.437C1363.9 287.604 1364.74 286.979 1365.72 286.562C1366.71 286.135 1367.82 285.922 1369.06 285.922C1370.72 285.922 1372.1 286.234 1373.22 286.859C1374.33 287.484 1375.19 288.396 1375.8 289.594C1376.41 290.781 1376.78 292.234 1376.91 293.953H1372.34C1372.31 292.87 1372.19 292.021 1371.97 291.406C1371.76 290.781 1371.43 290.344 1370.97 290.094C1370.51 289.833 1369.87 289.703 1369.06 289.703C1368.46 289.703 1367.94 289.812 1367.5 290.031C1367.06 290.24 1366.7 290.578 1366.42 291.047C1366.14 291.516 1365.93 292.13 1365.8 292.891C1365.67 293.651 1365.61 294.578 1365.61 295.672V299.562C1365.61 300.635 1365.67 301.552 1365.78 302.312C1365.9 303.062 1366.08 303.677 1366.33 304.156C1366.58 304.635 1366.92 304.984 1367.34 305.203C1367.78 305.422 1368.33 305.531 1369 305.531C1369.77 305.531 1370.39 305.417 1370.86 305.187C1371.34 304.958 1371.69 304.547 1371.92 303.953C1372.15 303.359 1372.28 302.516 1372.31 301.422ZM1388.31 286.25V309H1383.77V286.25H1388.31ZM1393.97 286.25V290.047H1378.22V286.25H1393.97ZM1406 303.016C1406 302.609 1405.96 302.24 1405.89 301.906C1405.82 301.573 1405.66 301.266 1405.42 300.984C1405.19 300.703 1404.85 300.422 1404.41 300.141C1403.97 299.859 1403.4 299.568 1402.69 299.266C1401.84 298.911 1401.03 298.536 1400.23 298.141C1399.44 297.734 1398.73 297.266 1398.09 296.734C1397.46 296.203 1396.95 295.578 1396.58 294.859C1396.21 294.13 1396.03 293.276 1396.03 292.297C1396.03 291.339 1396.2 290.469 1396.55 289.687C1396.9 288.906 1397.4 288.24 1398.05 287.687C1398.69 287.125 1399.45 286.693 1400.31 286.391C1401.19 286.089 1402.16 285.937 1403.23 285.937C1404.69 285.937 1405.95 286.24 1407.02 286.844C1408.09 287.448 1408.92 288.276 1409.5 289.328C1410.09 290.38 1410.39 291.589 1410.39 292.953H1405.83C1405.83 292.307 1405.73 291.74 1405.55 291.25C1405.37 290.75 1405.08 290.359 1404.69 290.078C1404.29 289.797 1403.78 289.656 1403.16 289.656C1402.57 289.656 1402.09 289.776 1401.7 290.016C1401.33 290.245 1401.05 290.562 1400.86 290.969C1400.68 291.365 1400.59 291.812 1400.59 292.312C1400.59 292.687 1400.68 293.026 1400.86 293.328C1401.05 293.62 1401.3 293.885 1401.62 294.125C1401.95 294.354 1402.33 294.578 1402.77 294.797C1403.21 295.016 1403.7 295.229 1404.23 295.437C1405.27 295.844 1406.18 296.292 1406.97 296.781C1407.76 297.26 1408.42 297.802 1408.95 298.406C1409.48 299 1409.89 299.672 1410.16 300.422C1410.43 301.172 1410.56 302.026 1410.56 302.984C1410.56 303.932 1410.4 304.797 1410.06 305.578C1409.74 306.349 1409.27 307.016 1408.64 307.578C1408.02 308.13 1407.26 308.557 1406.37 308.859C1405.5 309.161 1404.52 309.312 1403.44 309.312C1402.39 309.312 1401.39 309.167 1400.45 308.875C1399.52 308.573 1398.69 308.12 1397.97 307.516C1397.26 306.901 1396.7 306.125 1396.3 305.187C1395.89 304.24 1395.69 303.12 1395.69 301.828H1400.27C1400.27 302.516 1400.33 303.104 1400.47 303.594C1400.6 304.073 1400.81 304.458 1401.09 304.75C1401.37 305.031 1401.72 305.245 1402.12 305.391C1402.54 305.526 1403.02 305.594 1403.55 305.594C1404.15 305.594 1404.63 305.479 1404.98 305.25C1405.35 305.021 1405.61 304.714 1405.77 304.328C1405.92 303.943 1406 303.505 1406 303.016Z" fill="black"/>
<path d="M1547.06 297.061C1547.64 296.475 1547.64 295.525 1547.06 294.939L1537.51 285.393C1536.93 284.808 1535.98 284.808 1535.39 285.393C1534.81 285.979 1534.81 286.929 1535.39 287.515L1543.88 296L1535.39 304.485C1534.81 305.071 1534.81 306.021 1535.39 306.607C1535.98 307.192 1536.93 307.192 1537.51 306.607L1547.06 297.061ZM1448 297.5H1546V294.5H1448V297.5Z" fill="black"/>
<path d="M238.078 854.25V877H234.281V854.25H238.078ZM261.087 872.016L264.728 854.25H266.978L266.884 858.703L262.947 877H260.587L261.087 872.016ZM258.775 854.25L261.666 871.891L261.791 877H259.306L255.009 854.25H258.775ZM270.931 871.828L273.791 854.25H277.541L273.259 877H270.775L270.931 871.828ZM267.884 854.25L271.494 872.062L271.962 877H269.603L265.759 858.688L265.666 854.25H267.884ZM290.756 857.375L285.256 877H281.287L288.506 854.25H290.975L290.756 857.375ZM295.147 877L289.631 857.375L289.366 854.25H291.881L299.131 877H295.147ZM295.241 868.547V871.734H284.647V868.547H295.241ZM320.347 854.25V877H316.628L308.597 861.25V877H304.925V854.25H308.597L316.691 870.109V854.25H320.347ZM335.641 854.25V877H331.859V854.25H335.641ZM341.438 854.25V857.438H326.125V854.25H341.438ZM364.853 854.25V877H361.072V854.25H364.853ZM370.65 854.25V857.438H355.338V854.25H370.65ZM391.85 863.766V867.641C391.85 869.245 391.663 870.651 391.288 871.859C390.923 873.068 390.392 874.078 389.694 874.891C389.006 875.693 388.173 876.297 387.194 876.703C386.225 877.109 385.142 877.312 383.944 877.312C382.756 877.312 381.673 877.109 380.694 876.703C379.725 876.297 378.886 875.693 378.178 874.891C377.48 874.078 376.939 873.068 376.553 871.859C376.178 870.651 375.991 869.245 375.991 867.641V863.766C375.991 862.141 376.178 860.719 376.553 859.5C376.928 858.271 377.465 857.245 378.163 856.422C378.871 855.599 379.709 854.979 380.678 854.562C381.657 854.146 382.735 853.938 383.913 853.938C385.11 853.938 386.194 854.146 387.163 854.562C388.142 854.979 388.98 855.599 389.678 856.422C390.376 857.245 390.913 858.271 391.288 859.5C391.663 860.719 391.85 862.141 391.85 863.766ZM388.084 867.641V863.734C388.084 862.578 387.991 861.589 387.803 860.766C387.626 859.932 387.36 859.255 387.006 858.734C386.652 858.203 386.215 857.812 385.694 857.562C385.183 857.302 384.59 857.172 383.913 857.172C383.256 857.172 382.668 857.302 382.147 857.562C381.636 857.812 381.199 858.203 380.834 858.734C380.48 859.255 380.209 859.932 380.022 860.766C379.845 861.589 379.756 862.578 379.756 863.734V867.641C379.756 868.776 379.85 869.755 380.038 870.578C380.225 871.391 380.496 872.057 380.85 872.578C381.215 873.089 381.657 873.469 382.178 873.719C382.699 873.969 383.288 874.094 383.944 874.094C384.61 874.094 385.204 873.969 385.725 873.719C386.246 873.469 386.678 873.089 387.022 872.578C387.376 872.057 387.642 871.391 387.819 870.578C387.996 869.755 388.084 868.776 388.084 867.641ZM416.984 868.562H412.188V865.391H416.984C417.766 865.391 418.396 865.224 418.875 864.891C419.365 864.557 419.719 864.099 419.938 863.516C420.167 862.932 420.281 862.271 420.281 861.531C420.281 860.823 420.167 860.156 419.938 859.531C419.719 858.906 419.37 858.401 418.891 858.016C418.411 857.63 417.776 857.438 416.984 857.438H413.25V877H409.469V854.25H416.984C418.484 854.25 419.766 854.562 420.828 855.188C421.891 855.812 422.703 856.672 423.266 857.766C423.828 858.849 424.109 860.094 424.109 861.5C424.109 862.969 423.828 864.229 423.266 865.281C422.703 866.333 421.891 867.146 420.828 867.719C419.766 868.281 418.484 868.562 416.984 868.562ZM430.684 854.25H437.559C439.059 854.25 440.33 854.51 441.372 855.031C442.414 855.552 443.205 856.323 443.747 857.344C444.299 858.354 444.575 859.609 444.575 861.109C444.575 862.245 444.403 863.245 444.059 864.109C443.726 864.974 443.242 865.703 442.606 866.297C441.971 866.88 441.205 867.333 440.309 867.656L439.2 868.266H433.387L433.372 865.078H437.466C438.205 865.078 438.82 864.917 439.309 864.594C439.799 864.271 440.164 863.823 440.403 863.25C440.653 862.677 440.778 862.026 440.778 861.297C440.778 860.516 440.669 859.839 440.45 859.266C440.231 858.682 439.887 858.234 439.419 857.922C438.95 857.599 438.33 857.438 437.559 857.438H434.481V877H430.684V854.25ZM441.278 877L436.95 866.781L440.903 866.766L445.341 876.797V877H441.278ZM463.916 873.828V877H454.041V873.828H463.916ZM455.041 854.25V877H451.244V854.25H455.041ZM462.587 863.719V866.844H454.041V863.719H462.587ZM463.822 854.25V857.438H454.041V854.25H463.822ZM480.038 871.125C480.038 870.656 479.985 870.24 479.881 869.875C479.788 869.5 479.605 869.161 479.334 868.859C479.064 868.557 478.678 868.26 478.178 867.969C477.689 867.677 477.053 867.38 476.272 867.078C475.376 866.734 474.538 866.359 473.756 865.953C472.985 865.536 472.303 865.068 471.709 864.547C471.126 864.016 470.668 863.396 470.334 862.688C470.001 861.979 469.834 861.156 469.834 860.219C469.834 859.292 469.996 858.448 470.319 857.688C470.652 856.917 471.121 856.255 471.725 855.703C472.34 855.141 473.069 854.708 473.913 854.406C474.756 854.094 475.689 853.938 476.709 853.938C478.178 853.938 479.433 854.25 480.475 854.875C481.527 855.5 482.329 856.339 482.881 857.391C483.444 858.443 483.725 859.609 483.725 860.891H479.944C479.944 860.151 479.829 859.495 479.6 858.922C479.371 858.349 479.017 857.901 478.538 857.578C478.058 857.255 477.439 857.094 476.678 857.094C475.98 857.094 475.402 857.229 474.944 857.5C474.496 857.771 474.163 858.141 473.944 858.609C473.735 859.078 473.631 859.615 473.631 860.219C473.631 860.635 473.72 861.016 473.897 861.359C474.074 861.693 474.329 862 474.663 862.281C474.996 862.562 475.402 862.828 475.881 863.078C476.36 863.328 476.913 863.568 477.538 863.797C478.6 864.182 479.527 864.609 480.319 865.078C481.11 865.547 481.761 866.073 482.272 866.656C482.793 867.229 483.178 867.88 483.428 868.609C483.689 869.339 483.819 870.167 483.819 871.094C483.819 872.031 483.657 872.885 483.334 873.656C483.022 874.417 482.564 875.068 481.959 875.609C481.355 876.151 480.626 876.573 479.772 876.875C478.918 877.167 477.959 877.312 476.897 877.312C475.918 877.312 474.975 877.167 474.069 876.875C473.173 876.583 472.371 876.141 471.663 875.547C470.954 874.943 470.392 874.188 469.975 873.281C469.569 872.375 469.366 871.312 469.366 870.094H473.163C473.163 870.823 473.251 871.448 473.428 871.969C473.605 872.479 473.86 872.901 474.194 873.234C474.538 873.557 474.939 873.797 475.397 873.953C475.866 874.099 476.386 874.172 476.959 874.172C477.668 874.172 478.246 874.047 478.694 873.797C479.152 873.536 479.491 873.177 479.709 872.719C479.928 872.26 480.038 871.729 480.038 871.125ZM503.097 873.828V877H493.222V873.828H503.097ZM494.222 854.25V877H490.425V854.25H494.222ZM501.769 863.719V866.844H493.222V863.719H501.769ZM503.003 854.25V857.438H493.222V854.25H503.003ZM524.859 854.25V877H521.141L513.109 861.25V877H509.438V854.25H513.109L521.203 870.109V854.25H524.859ZM540.153 854.25V877H536.372V854.25H540.153ZM545.95 854.25V857.438H530.638V854.25H545.95ZM243.906 913.125C243.906 912.656 243.854 912.24 243.75 911.875C243.656 911.5 243.474 911.161 243.203 910.859C242.932 910.557 242.547 910.26 242.047 909.969C241.557 909.677 240.922 909.38 240.141 909.078C239.245 908.734 238.406 908.359 237.625 907.953C236.854 907.536 236.172 907.068 235.578 906.547C234.995 906.016 234.536 905.396 234.203 904.688C233.87 903.979 233.703 903.156 233.703 902.219C233.703 901.292 233.865 900.448 234.188 899.688C234.521 898.917 234.99 898.255 235.594 897.703C236.208 897.141 236.938 896.708 237.781 896.406C238.625 896.094 239.557 895.938 240.578 895.938C242.047 895.938 243.302 896.25 244.344 896.875C245.396 897.5 246.198 898.339 246.75 899.391C247.312 900.443 247.594 901.609 247.594 902.891H243.812C243.812 902.151 243.698 901.495 243.469 900.922C243.24 900.349 242.885 899.901 242.406 899.578C241.927 899.255 241.307 899.094 240.547 899.094C239.849 899.094 239.271 899.229 238.812 899.5C238.365 899.771 238.031 900.141 237.812 900.609C237.604 901.078 237.5 901.615 237.5 902.219C237.5 902.635 237.589 903.016 237.766 903.359C237.943 903.693 238.198 904 238.531 904.281C238.865 904.562 239.271 904.828 239.75 905.078C240.229 905.328 240.781 905.568 241.406 905.797C242.469 906.182 243.396 906.609 244.188 907.078C244.979 907.547 245.63 908.073 246.141 908.656C246.661 909.229 247.047 909.88 247.297 910.609C247.557 911.339 247.688 912.167 247.688 913.094C247.688 914.031 247.526 914.885 247.203 915.656C246.891 916.417 246.432 917.068 245.828 917.609C245.224 918.151 244.495 918.573 243.641 918.875C242.786 919.167 241.828 919.312 240.766 919.312C239.786 919.312 238.844 919.167 237.938 918.875C237.042 918.583 236.24 918.141 235.531 917.547C234.823 916.943 234.26 916.188 233.844 915.281C233.438 914.375 233.234 913.312 233.234 912.094H237.031C237.031 912.823 237.12 913.448 237.297 913.969C237.474 914.479 237.729 914.901 238.062 915.234C238.406 915.557 238.807 915.797 239.266 915.953C239.734 916.099 240.255 916.172 240.828 916.172C241.536 916.172 242.115 916.047 242.562 915.797C243.021 915.536 243.359 915.177 243.578 914.719C243.797 914.26 243.906 913.729 243.906 913.125ZM269.731 905.766V909.641C269.731 911.245 269.544 912.651 269.169 913.859C268.804 915.068 268.273 916.078 267.575 916.891C266.888 917.693 266.054 918.297 265.075 918.703C264.106 919.109 263.023 919.312 261.825 919.312C260.638 919.312 259.554 919.109 258.575 918.703C257.606 918.297 256.768 917.693 256.059 916.891C255.361 916.078 254.82 915.068 254.434 913.859C254.059 912.651 253.872 911.245 253.872 909.641V905.766C253.872 904.141 254.059 902.719 254.434 901.5C254.809 900.271 255.346 899.245 256.044 898.422C256.752 897.599 257.591 896.979 258.559 896.562C259.539 896.146 260.617 895.938 261.794 895.938C262.992 895.938 264.075 896.146 265.044 896.562C266.023 896.979 266.861 897.599 267.559 898.422C268.257 899.245 268.794 900.271 269.169 901.5C269.544 902.719 269.731 904.141 269.731 905.766ZM265.966 909.641V905.734C265.966 904.578 265.872 903.589 265.684 902.766C265.507 901.932 265.242 901.255 264.888 900.734C264.533 900.203 264.096 899.812 263.575 899.562C263.065 899.302 262.471 899.172 261.794 899.172C261.138 899.172 260.549 899.302 260.028 899.562C259.518 899.812 259.08 900.203 258.716 900.734C258.361 901.255 258.091 901.932 257.903 902.766C257.726 903.589 257.638 904.578 257.638 905.734V909.641C257.638 910.776 257.731 911.755 257.919 912.578C258.106 913.391 258.377 914.057 258.731 914.578C259.096 915.089 259.539 915.469 260.059 915.719C260.58 915.969 261.169 916.094 261.825 916.094C262.492 916.094 263.085 915.969 263.606 915.719C264.127 915.469 264.559 915.089 264.903 914.578C265.257 914.057 265.523 913.391 265.7 912.578C265.877 911.755 265.966 910.776 265.966 909.641ZM278.072 896.25H281.525L286.759 913.172L291.978 896.25H295.181L288.181 919H285.322L278.072 896.25ZM276.775 896.25H279.963L280.478 910.734V919H276.775V896.25ZM293.525 896.25H296.728V919H293.025V910.734L293.525 896.25ZM316.866 915.828V919H306.991V915.828H316.866ZM307.991 896.25V919H304.194V896.25H307.991ZM315.537 905.719V908.844H306.991V905.719H315.537ZM316.772 896.25V899.438H306.991V896.25H316.772ZM341.297 910.562H336.5V907.391H341.297C342.078 907.391 342.708 907.224 343.188 906.891C343.677 906.557 344.031 906.099 344.25 905.516C344.479 904.932 344.594 904.271 344.594 903.531C344.594 902.823 344.479 902.156 344.25 901.531C344.031 900.906 343.682 900.401 343.203 900.016C342.724 899.63 342.089 899.438 341.297 899.438H337.562V919H333.781V896.25H341.297C342.797 896.25 344.078 896.562 345.141 897.188C346.203 897.812 347.016 898.672 347.578 899.766C348.141 900.849 348.422 902.094 348.422 903.5C348.422 904.969 348.141 906.229 347.578 907.281C347.016 908.333 346.203 909.146 345.141 909.719C344.078 910.281 342.797 910.562 341.297 910.562ZM354.997 896.25H361.872C363.372 896.25 364.643 896.51 365.684 897.031C366.726 897.552 367.518 898.323 368.059 899.344C368.611 900.354 368.887 901.609 368.887 903.109C368.887 904.245 368.716 905.245 368.372 906.109C368.039 906.974 367.554 907.703 366.919 908.297C366.283 908.88 365.518 909.333 364.622 909.656L363.512 910.266H357.7L357.684 907.078H361.778C362.518 907.078 363.132 906.917 363.622 906.594C364.111 906.271 364.476 905.823 364.716 905.25C364.966 904.677 365.091 904.026 365.091 903.297C365.091 902.516 364.981 901.839 364.762 901.266C364.544 900.682 364.2 900.234 363.731 899.922C363.262 899.599 362.643 899.438 361.872 899.438H358.794V919H354.997V896.25ZM365.591 919L361.262 908.781L365.216 908.766L369.653 918.797V919H365.591ZM390.994 905.766V909.641C390.994 911.245 390.806 912.651 390.431 913.859C390.067 915.068 389.535 916.078 388.837 916.891C388.15 917.693 387.317 918.297 386.337 918.703C385.369 919.109 384.285 919.312 383.087 919.312C381.9 919.312 380.817 919.109 379.837 918.703C378.869 918.297 378.03 917.693 377.322 916.891C376.624 916.078 376.082 915.068 375.697 913.859C375.322 912.651 375.134 911.245 375.134 909.641V905.766C375.134 904.141 375.322 902.719 375.697 901.5C376.072 900.271 376.608 899.245 377.306 898.422C378.015 897.599 378.853 896.979 379.822 896.562C380.801 896.146 381.879 895.938 383.056 895.938C384.254 895.938 385.337 896.146 386.306 896.562C387.285 896.979 388.124 897.599 388.822 898.422C389.52 899.245 390.056 900.271 390.431 901.5C390.806 902.719 390.994 904.141 390.994 905.766ZM387.228 909.641V905.734C387.228 904.578 387.134 903.589 386.947 902.766C386.77 901.932 386.504 901.255 386.15 900.734C385.796 900.203 385.358 899.812 384.837 899.562C384.327 899.302 383.733 899.172 383.056 899.172C382.4 899.172 381.811 899.302 381.291 899.562C380.78 899.812 380.343 900.203 379.978 900.734C379.624 901.255 379.353 901.932 379.166 902.766C378.989 903.589 378.9 904.578 378.9 905.734V909.641C378.9 910.776 378.994 911.755 379.181 912.578C379.369 913.391 379.64 914.057 379.994 914.578C380.358 915.089 380.801 915.469 381.322 915.719C381.843 915.969 382.431 916.094 383.087 916.094C383.754 916.094 384.348 915.969 384.869 915.719C385.39 915.469 385.822 915.089 386.166 914.578C386.52 914.057 386.785 913.391 386.962 912.578C387.14 911.755 387.228 910.776 387.228 909.641ZM405.694 912.156V896.25H409.475V912.156C409.475 913.667 409.199 914.958 408.647 916.031C408.095 917.094 407.34 917.906 406.381 918.469C405.423 919.031 404.334 919.312 403.116 919.312C401.886 919.312 400.788 919.068 399.819 918.578C398.86 918.078 398.105 917.323 397.553 916.312C397.001 915.302 396.725 914.021 396.725 912.469H400.538C400.538 913.354 400.647 914.068 400.866 914.609C401.084 915.141 401.386 915.531 401.772 915.781C402.168 916.021 402.616 916.141 403.116 916.141C403.626 916.141 404.074 915.99 404.459 915.688C404.845 915.375 405.147 914.922 405.366 914.328C405.584 913.734 405.694 913.01 405.694 912.156ZM429.503 915.828V919H419.628V915.828H429.503ZM420.628 896.25V919H416.831V896.25H420.628ZM428.175 905.719V908.844H419.628V905.719H428.175ZM429.409 896.25V899.438H419.628V896.25H429.409ZM446.938 911.578H450.719C450.646 913.224 450.312 914.625 449.719 915.781C449.125 916.927 448.271 917.802 447.156 918.406C446.052 919.01 444.703 919.312 443.109 919.312C441.901 919.312 440.818 919.094 439.859 918.656C438.911 918.219 438.104 917.589 437.438 916.766C436.771 915.932 436.26 914.917 435.906 913.719C435.562 912.521 435.391 911.161 435.391 909.641V905.609C435.391 904.089 435.568 902.729 435.922 901.531C436.286 900.333 436.807 899.318 437.484 898.484C438.161 897.651 438.984 897.021 439.953 896.594C440.932 896.156 442.036 895.938 443.266 895.938C444.839 895.938 446.161 896.24 447.234 896.844C448.307 897.448 449.135 898.333 449.719 899.5C450.302 900.667 450.641 902.089 450.734 903.766H446.953C446.901 902.63 446.745 901.724 446.484 901.047C446.234 900.359 445.849 899.865 445.328 899.562C444.818 899.26 444.13 899.109 443.266 899.109C442.547 899.109 441.927 899.245 441.406 899.516C440.896 899.786 440.474 900.193 440.141 900.734C439.818 901.266 439.573 901.938 439.406 902.75C439.25 903.552 439.172 904.495 439.172 905.578V909.641C439.172 910.682 439.24 911.604 439.375 912.406C439.51 913.208 439.729 913.891 440.031 914.453C440.333 915.005 440.734 915.427 441.234 915.719C441.734 916 442.359 916.141 443.109 916.141C444.005 916.141 444.719 916 445.25 915.719C445.792 915.438 446.193 914.964 446.453 914.297C446.714 913.63 446.875 912.724 446.938 911.578ZM465.059 896.25V919H461.278V896.25H465.059ZM470.856 896.25V899.438H455.544V896.25H470.856ZM486.587 913.125C486.587 912.656 486.535 912.24 486.431 911.875C486.337 911.5 486.155 911.161 485.884 910.859C485.614 910.557 485.228 910.26 484.728 909.969C484.239 909.677 483.603 909.38 482.822 909.078C481.926 908.734 481.087 908.359 480.306 907.953C479.535 907.536 478.853 907.068 478.259 906.547C477.676 906.016 477.218 905.396 476.884 904.688C476.551 903.979 476.384 903.156 476.384 902.219C476.384 901.292 476.546 900.448 476.869 899.688C477.202 898.917 477.671 898.255 478.275 897.703C478.89 897.141 479.619 896.708 480.462 896.406C481.306 896.094 482.239 895.938 483.259 895.938C484.728 895.938 485.983 896.25 487.025 896.875C488.077 897.5 488.879 898.339 489.431 899.391C489.994 900.443 490.275 901.609 490.275 902.891H486.494C486.494 902.151 486.379 901.495 486.15 900.922C485.921 900.349 485.567 899.901 485.087 899.578C484.608 899.255 483.989 899.094 483.228 899.094C482.53 899.094 481.952 899.229 481.494 899.5C481.046 899.771 480.712 900.141 480.494 900.609C480.285 901.078 480.181 901.615 480.181 902.219C480.181 902.635 480.27 903.016 480.447 903.359C480.624 903.693 480.879 904 481.212 904.281C481.546 904.562 481.952 904.828 482.431 905.078C482.91 905.328 483.462 905.568 484.087 905.797C485.15 906.182 486.077 906.609 486.869 907.078C487.66 907.547 488.311 908.073 488.822 908.656C489.343 909.229 489.728 909.88 489.978 910.609C490.239 911.339 490.369 912.167 490.369 913.094C490.369 914.031 490.207 914.885 489.884 915.656C489.572 916.417 489.114 917.068 488.509 917.609C487.905 918.151 487.176 918.573 486.322 918.875C485.468 919.167 484.509 919.312 483.447 919.312C482.468 919.312 481.525 919.167 480.619 918.875C479.723 918.583 478.921 918.141 478.212 917.547C477.504 916.943 476.942 916.188 476.525 915.281C476.119 914.375 475.916 913.312 475.916 912.094H479.712C479.712 912.823 479.801 913.448 479.978 913.969C480.155 914.479 480.41 914.901 480.744 915.234C481.087 915.557 481.489 915.797 481.947 915.953C482.416 916.099 482.936 916.172 483.509 916.172C484.218 916.172 484.796 916.047 485.244 915.797C485.702 915.536 486.041 915.177 486.259 914.719C486.478 914.26 486.587 913.729 486.587 913.125ZM522.987 905.766V909.641C522.987 911.245 522.8 912.651 522.425 913.859C522.06 915.068 521.529 916.078 520.831 916.891C520.144 917.693 519.31 918.297 518.331 918.703C517.362 919.109 516.279 919.312 515.081 919.312C513.894 919.312 512.81 919.109 511.831 918.703C510.862 918.297 510.024 917.693 509.316 916.891C508.618 916.078 508.076 915.068 507.691 913.859C507.316 912.651 507.128 911.245 507.128 909.641V905.766C507.128 904.141 507.316 902.719 507.691 901.5C508.066 900.271 508.602 899.245 509.3 898.422C510.008 897.599 510.847 896.979 511.816 896.562C512.795 896.146 513.873 895.938 515.05 895.938C516.248 895.938 517.331 896.146 518.3 896.562C519.279 896.979 520.118 897.599 520.816 898.422C521.514 899.245 522.05 900.271 522.425 901.5C522.8 902.719 522.987 904.141 522.987 905.766ZM519.222 909.641V905.734C519.222 904.578 519.128 903.589 518.941 902.766C518.764 901.932 518.498 901.255 518.144 900.734C517.79 900.203 517.352 899.812 516.831 899.562C516.321 899.302 515.727 899.172 515.05 899.172C514.394 899.172 513.805 899.302 513.284 899.562C512.774 899.812 512.336 900.203 511.972 900.734C511.618 901.255 511.347 901.932 511.159 902.766C510.982 903.589 510.894 904.578 510.894 905.734V909.641C510.894 910.776 510.987 911.755 511.175 912.578C511.362 913.391 511.633 914.057 511.987 914.578C512.352 915.089 512.795 915.469 513.316 915.719C513.836 915.969 514.425 916.094 515.081 916.094C515.748 916.094 516.342 915.969 516.862 915.719C517.383 915.469 517.816 915.089 518.159 914.578C518.514 914.057 518.779 913.391 518.956 912.578C519.133 911.755 519.222 910.776 519.222 909.641ZM545.453 896.25V919H541.734L533.703 903.25V919H530.031V896.25H533.703L541.797 912.109V896.25H545.453ZM238.969 956.016L242.609 938.25H244.859L244.766 942.703L240.828 961H238.469L238.969 956.016ZM236.656 938.25L239.547 955.891L239.672 961H237.188L232.891 938.25H236.656ZM248.812 955.828L251.672 938.25H255.422L251.141 961H248.656L248.812 955.828ZM245.766 938.25L249.375 956.062L249.844 961H247.484L243.641 942.688L243.547 938.25H245.766ZM265.434 938.25V961H261.638V938.25H265.434ZM280.822 938.25V961H277.041V938.25H280.822ZM286.619 938.25V941.438H271.306V938.25H286.619ZM305.303 947.719V950.906H295.725V947.719H305.303ZM296.616 938.25V961H292.819V938.25H296.616ZM308.272 938.25V961H304.491V938.25H308.272ZM330.297 938.25V961H326.5V938.25H330.297ZM353.306 956.016L356.947 938.25H359.197L359.103 942.703L355.166 961H352.806L353.306 956.016ZM350.994 938.25L353.884 955.891L354.009 961H351.525L347.228 938.25H350.994ZM363.15 955.828L366.009 938.25H369.759L365.478 961H362.994L363.15 955.828ZM360.103 938.25L363.713 956.062L364.181 961H361.822L357.978 942.688L357.884 938.25H360.103ZM391.256 947.766V951.641C391.256 953.245 391.069 954.651 390.694 955.859C390.329 957.068 389.798 958.078 389.1 958.891C388.413 959.693 387.579 960.297 386.6 960.703C385.631 961.109 384.548 961.312 383.35 961.312C382.163 961.312 381.079 961.109 380.1 960.703C379.131 960.297 378.293 959.693 377.584 958.891C376.886 958.078 376.345 957.068 375.959 955.859C375.584 954.651 375.397 953.245 375.397 951.641V947.766C375.397 946.141 375.584 944.719 375.959 943.5C376.334 942.271 376.871 941.245 377.569 940.422C378.277 939.599 379.116 938.979 380.084 938.562C381.064 938.146 382.142 937.938 383.319 937.938C384.517 937.938 385.6 938.146 386.569 938.562C387.548 938.979 388.386 939.599 389.084 940.422C389.782 941.245 390.319 942.271 390.694 943.5C391.069 944.719 391.256 946.141 391.256 947.766ZM387.491 951.641V947.734C387.491 946.578 387.397 945.589 387.209 944.766C387.032 943.932 386.767 943.255 386.413 942.734C386.058 942.203 385.621 941.812 385.1 941.562C384.59 941.302 383.996 941.172 383.319 941.172C382.663 941.172 382.074 941.302 381.553 941.562C381.043 941.812 380.605 942.203 380.241 942.734C379.886 943.255 379.616 943.932 379.428 944.766C379.251 945.589 379.163 946.578 379.163 947.734V951.641C379.163 952.776 379.256 953.755 379.444 954.578C379.631 955.391 379.902 956.057 380.256 956.578C380.621 957.089 381.064 957.469 381.584 957.719C382.105 957.969 382.694 958.094 383.35 958.094C384.017 958.094 384.61 957.969 385.131 957.719C385.652 957.469 386.084 957.089 386.428 956.578C386.782 956.057 387.048 955.391 387.225 954.578C387.402 953.755 387.491 952.776 387.491 951.641ZM398.316 938.25H405.191C406.691 938.25 407.961 938.51 409.003 939.031C410.045 939.552 410.836 940.323 411.378 941.344C411.93 942.354 412.206 943.609 412.206 945.109C412.206 946.245 412.034 947.245 411.691 948.109C411.357 948.974 410.873 949.703 410.238 950.297C409.602 950.88 408.836 951.333 407.941 951.656L406.831 952.266H401.019L401.003 949.078H405.097C405.836 949.078 406.451 948.917 406.941 948.594C407.43 948.271 407.795 947.823 408.034 947.25C408.284 946.677 408.409 946.026 408.409 945.297C408.409 944.516 408.3 943.839 408.081 943.266C407.863 942.682 407.519 942.234 407.05 941.922C406.581 941.599 405.961 941.438 405.191 941.438H402.113V961H398.316V938.25ZM408.909 961L404.581 950.781L408.534 950.766L412.972 960.797V961H408.909ZM422.672 938.25V961H418.875V938.25H422.672ZM434.031 938.25L426.453 949.234L421.906 954.812L421.188 950.844L424.328 946.188L429.438 938.25H434.031ZM429.859 961L424.094 950.25L426.703 947.547L434.344 961H429.859ZM452.341 957.828V961H442.466V957.828H452.341ZM443.466 938.25V961H439.669V938.25H443.466ZM451.012 947.719V950.844H442.466V947.719H451.012ZM452.247 938.25V941.438H442.466V938.25H452.247ZM464.259 961H460.306L460.337 957.828H464.259C465.478 957.828 466.452 957.604 467.181 957.156C467.91 956.698 468.436 956 468.759 955.062C469.082 954.125 469.244 952.927 469.244 951.469V947.766C469.244 946.641 469.15 945.682 468.962 944.891C468.785 944.089 468.504 943.438 468.119 942.938C467.744 942.427 467.249 942.052 466.634 941.812C466.02 941.562 465.28 941.438 464.416 941.438H460.228V938.25H464.416C465.718 938.25 466.895 938.458 467.947 938.875C468.999 939.292 469.9 939.906 470.65 940.719C471.41 941.521 471.994 942.516 472.4 943.703C472.806 944.891 473.009 946.255 473.009 947.797V951.469C473.009 953.01 472.806 954.375 472.4 955.562C471.994 956.74 471.41 957.734 470.65 958.547C469.89 959.349 468.973 959.958 467.9 960.375C466.827 960.792 465.614 961 464.259 961ZM462.478 938.25V961H458.681V938.25H462.478ZM494.597 938.25V961H490.8V938.25H494.597ZM517.609 938.25V961H513.891L505.859 945.25V961H502.188V938.25H505.859L513.953 954.109V938.25H517.609Z" fill="black"/>
<circle cx="870.5" cy="705.5" r="99.5" fill="#746BEB"/>
<path d="M857.484 700.301L869.071 690.976C871.02 689.431 872.326 687.923 872.988 686.452C873.687 684.944 874.037 683.104 874.037 680.934C874.037 679.058 873.466 677.329 872.326 675.748C871.223 674.129 869.659 673.32 867.636 673.32C866.202 673.32 865.006 673.743 864.05 674.589C863.13 675.435 862.431 676.575 861.953 678.01C861.475 679.408 861.236 680.952 861.236 682.645C861.236 684.3 861.604 685.992 862.339 687.721C863.112 689.45 864.123 691.27 865.374 693.183C866.625 695.059 868.022 697.082 869.567 699.252L901.073 744H886.23L860.96 707.639C858.716 704.402 856.711 701.441 854.946 698.756C853.18 696.034 851.801 693.404 850.808 690.866C849.814 688.291 849.318 685.642 849.318 682.92C849.318 678.727 850.072 675.104 851.58 672.051C853.125 668.998 855.258 666.662 857.98 665.043C860.739 663.388 863.976 662.561 867.691 662.561C871.223 662.561 874.294 663.388 876.906 665.043C879.517 666.662 881.522 668.832 882.92 671.554C884.354 674.239 885.072 677.201 885.072 680.438C885.072 682.976 884.704 685.293 883.968 687.39C883.233 689.45 882.184 691.362 880.823 693.128C879.499 694.857 877.881 696.494 875.968 698.039L861.236 710.343C859.875 711.851 858.863 713.322 858.201 714.757C857.576 716.191 857.153 717.516 856.932 718.729C856.748 719.907 856.656 720.955 856.656 721.875C856.656 724.192 857.042 726.307 857.815 728.22C858.624 730.096 859.764 731.585 861.236 732.689C862.707 733.756 864.473 734.289 866.533 734.289C868.96 734.289 871.315 733.609 873.595 732.248C875.876 730.887 877.936 728.937 879.775 726.399C881.614 723.861 883.067 720.845 884.134 717.35C885.201 713.819 885.734 709.92 885.734 705.653H896.824C896.824 709.589 896.493 713.322 895.831 716.854C895.206 720.348 894.157 723.585 892.686 726.564C891.215 729.544 889.302 732.229 886.948 734.62C886.727 734.841 886.47 735.153 886.175 735.558C885.881 735.963 885.605 736.294 885.348 736.551C882.699 739.42 879.72 741.572 876.409 743.007C873.099 744.405 869.659 745.104 866.091 745.104C861.53 745.104 857.576 744.129 854.229 742.179C850.881 740.23 848.306 737.544 846.504 734.124C844.701 730.703 843.8 726.785 843.8 722.371C843.8 719.061 844.37 716.173 845.511 713.708C846.688 711.207 848.306 708.89 850.366 706.756C852.426 704.623 854.799 702.471 857.484 700.301Z" fill="white"/>
<defs>
<linearGradient id="paint0_linear_20_56" x1="963" y1="857" x2="1377" y2="857" gradientUnits="userSpaceOnUse">
<stop/>
<stop offset="0.229167" stop-color="#585858"/>
<stop offset="0.494792" stop-color="#858585"/>
<stop offset="0.776042" stop-color="#B8B8B8"/>
<stop offset="1" stop-color="#D7D7D7"/>
</linearGradient>
</defs>
</svg>
